<?xml version="1.0" encoding="UTF-8"?><svg xmlns="http://www.w3.org/2000/svg" xmlns:xlink="http://www.w3.org/1999/xlink" viewBox="0 0 558.53 325.7"><defs><style>.cls-1{isolation:isolate;}.cls-2{fill:#bfddeb;mix-blend-mode:multiply;}.cls-3{clip-path:url(#clippath);}.cls-4{fill:none;}</style><clipPath id="clippath"><rect class="cls-4" x="18.53" y="24.53" width="540" height="288" transform="translate(577.06 337.06) rotate(180)"/></clipPath></defs><g class="cls-1"><g id="Layer_1"><g class="cls-3"><g><g><path class="cls-2" d="M342.47,325.7c.35-.72,.09-1.59-.61-2-.74-.42-1.68-.17-2.1,.56-.26,.46-.27,.99-.05,1.44h2.77Z"/><path class="cls-2" d="M342.47,325.7c.21-.44,.21-.98-.05-1.44-.43-.74-1.37-.99-2.1-.56-.7,.41-.96,1.28-.61,2h2.77Z"/><path class="cls-2" d="M260.9,325.7c.35-.72,.09-1.59-.61-2-.74-.42-1.68-.17-2.1,.56-.26,.46-.27,.99-.05,1.44h2.77Z"/><path class="cls-2" d="M260.91,325.7c.21-.44,.21-.98-.05-1.44-.43-.74-1.37-.99-2.1-.56-.7,.41-.96,1.28-.61,2h2.77Z"/><path class="cls-2" d="M179.33,325.7c.35-.72,.09-1.59-.61-2-.74-.42-1.68-.17-2.1,.56-.26,.46-.27,.99-.05,1.44h2.77Z"/><path class="cls-2" d="M179.34,325.7c.21-.44,.21-.98-.05-1.44-.42-.74-1.37-.99-2.1-.56-.7,.41-.96,1.28-.61,2h2.77Z"/><path class="cls-2" d="M97.77,325.7c.35-.72,.09-1.59-.61-2-.74-.42-1.68-.17-2.1,.56-.26,.46-.27,.99-.05,1.44h2.77Z"/><g><path class="cls-2" d="M341.09,277.73c.11,0,.2,.09,.2,.2v47.1c0,.11-.09,.2-.2,.2s-.2-.09-.2-.2v-47.1c0-.11,.09-.2,.2-.2Z"/><path class="cls-2" d="M339.55,277.94c0-.85,.69-1.54,1.54-1.54s1.54,.69,1.54,1.54-.69,1.54-1.54,1.54-1.54-.69-1.54-1.54Z"/><path class="cls-2" d="M342.47,325.7c.1-.2,.16-.43,.16-.67,0-.85-.69-1.54-1.54-1.54s-1.54,.69-1.54,1.54c0,.24,.06,.46,.16,.67h2.76Z"/></g><path class="cls-2" d="M342.47,325.7c.35-.72,.09-1.59-.61-2-.74-.42-1.68-.17-2.1,.56-.26,.46-.27,.99-.05,1.44h2.77Z"/><g><path class="cls-2" d="M341.1,277.73c.11,0,.2,.09,.2,.2v47.1c0,.11-.09,.2-.2,.2s-.2-.09-.2-.2v-47.1c0-.11,.09-.2,.2-.2Z"/><path class="cls-2" d="M339.56,277.94c0-.85,.69-1.54,1.54-1.54s1.54,.69,1.54,1.54-.69,1.54-1.54,1.54-1.54-.69-1.54-1.54Z"/><path class="cls-2" d="M342.48,325.7c.1-.2,.16-.43,.16-.67,0-.85-.69-1.54-1.54-1.54s-1.54,.69-1.54,1.54c0,.24,.06,.46,.16,.67h2.76Z"/></g><g><path class="cls-2" d="M300.31,254.18s.07,0,.1,.03l40.79,23.55c.1,.06,.13,.18,.08,.28-.06,.1-.18,.13-.28,.07l-40.79-23.55c-.1-.06-.13-.18-.07-.28,.04-.07,.11-.1,.18-.1Z"/><path class="cls-2" d="M341.86,276.6c.74,.42,.99,1.37,.56,2.1-.42,.74-1.37,.99-2.1,.56-.74-.42-.99-1.37-.56-2.1s1.37-.99,2.1-.56Z"/><path class="cls-2" d="M301.08,253.06c-.74-.42-1.68-.17-2.1,.56s-.17,1.68,.56,2.1c.74,.42,1.68,.17,2.1-.56,.43-.74,.17-1.68-.56-2.1Z"/></g><g><path class="cls-2" d="M300.31,254.18c.07,0,.14,.04,.18,.1,.06,.1,.02,.22-.08,.28l-40.79,23.55c-.1,.06-.22,.02-.28-.07-.06-.1-.02-.22,.07-.28l40.79-23.55s.07-.03,.1-.03Z"/><path class="cls-2" d="M299.54,253.06c.74-.42,1.68-.17,2.1,.56,.43,.74,.17,1.68-.56,2.1-.74,.42-1.68,.17-2.1-.56-.43-.74-.17-1.68,.56-2.1Z"/><path class="cls-2" d="M258.75,276.6c-.74,.42-.99,1.37-.56,2.1,.43,.74,1.37,.99,2.1,.56,.74-.42,.99-1.37,.56-2.1-.43-.74-1.37-.99-2.1-.56Z"/></g><g><path class="cls-2" d="M259.52,277.73c.11,0,.2,.09,.2,.2v47.1c0,.11-.09,.2-.2,.2s-.2-.09-.2-.2v-47.1c0-.11,.09-.2,.2-.2Z"/><path class="cls-2" d="M257.98,277.94c0-.85,.69-1.54,1.54-1.54s1.54,.69,1.54,1.54-.69,1.54-1.54,1.54-1.54-.69-1.54-1.54Z"/><path class="cls-2" d="M260.9,325.7c.1-.2,.16-.43,.16-.67,0-.85-.69-1.54-1.54-1.54s-1.54,.69-1.54,1.54c0,.24,.06,.46,.16,.67h2.76Z"/></g><path class="cls-2" d="M260.91,325.7c.35-.72,.09-1.59-.61-2-.74-.42-1.68-.17-2.1,.56-.26,.46-.27,.99-.05,1.44h2.77Z"/><path class="cls-2" d="M342.48,325.7c.21-.44,.21-.98-.05-1.44-.43-.74-1.37-.99-2.1-.56-.7,.41-.96,1.28-.61,2h2.77Z"/><g><path class="cls-2" d="M259.53,277.73c.11,0,.2,.09,.2,.2v47.1c0,.11-.09,.2-.2,.2s-.2-.09-.2-.2v-47.1c0-.11,.09-.2,.2-.2Z"/><path class="cls-2" d="M257.99,277.94c0-.85,.69-1.54,1.54-1.54s1.54,.69,1.54,1.54-.69,1.54-1.54,1.54-1.54-.69-1.54-1.54Z"/><path class="cls-2" d="M260.91,325.7c.1-.2,.16-.43,.16-.67,0-.85-.69-1.54-1.54-1.54s-1.54,.69-1.54,1.54c0,.24,.06,.46,.16,.67h2.76Z"/></g><g><path class="cls-2" d="M218.74,254.18s.07,0,.1,.03l40.79,23.55c.1,.06,.13,.18,.08,.28-.06,.1-.18,.13-.28,.07l-40.79-23.55c-.1-.06-.13-.18-.07-.28,.04-.07,.11-.1,.18-.1Z"/><path class="cls-2" d="M260.3,276.6c.74,.42,.99,1.37,.56,2.1-.43,.74-1.37,.99-2.1,.56-.74-.42-.99-1.37-.56-2.1,.42-.74,1.37-.99,2.1-.56Z"/><path class="cls-2" d="M219.51,253.06c-.74-.42-1.68-.17-2.1,.56-.42,.74-.17,1.68,.56,2.1,.74,.42,1.68,.17,2.1-.56s.17-1.68-.56-2.1Z"/></g><g><path class="cls-2" d="M218.74,254.18c.07,0,.14,.04,.18,.1,.06,.1,.02,.22-.07,.28l-40.79,23.55c-.1,.06-.22,.02-.28-.07-.06-.1-.02-.22,.07-.28l40.79-23.55s.07-.03,.1-.03Z"/><path class="cls-2" d="M217.97,253.06c.74-.42,1.68-.17,2.1,.56,.42,.74,.17,1.68-.56,2.1-.74,.42-1.68,.17-2.1-.56-.42-.74-.17-1.68,.56-2.1Z"/><path class="cls-2" d="M177.18,276.6c-.74,.42-.99,1.37-.56,2.1,.42,.74,1.37,.99,2.1,.56,.74-.42,.99-1.37,.56-2.1-.43-.74-1.37-.99-2.1-.56Z"/></g><g><path class="cls-2" d="M177.95,277.73c.11,0,.2,.09,.2,.2v47.1c0,.11-.09,.2-.2,.2s-.2-.09-.2-.2v-47.1c0-.11,.09-.2,.2-.2Z"/><path class="cls-2" d="M176.41,277.94c0-.85,.69-1.54,1.54-1.54s1.54,.69,1.54,1.54-.69,1.54-1.54,1.54-1.54-.69-1.54-1.54Z"/><path class="cls-2" d="M179.34,325.7c.1-.2,.16-.43,.16-.67,0-.85-.69-1.54-1.54-1.54s-1.54,.69-1.54,1.54c0,.24,.06,.46,.16,.67h2.76Z"/></g><path class="cls-2" d="M179.34,325.7c.35-.72,.09-1.59-.61-2-.74-.42-1.68-.17-2.1,.56-.26,.46-.27,.99-.05,1.44h2.77Z"/><path class="cls-2" d="M260.92,325.7c.21-.44,.21-.98-.05-1.44-.43-.74-1.37-.99-2.1-.56-.7,.41-.96,1.28-.61,2h2.77Z"/><g><path class="cls-2" d="M177.96,277.73c.11,0,.2,.09,.2,.2v47.1c0,.11-.09,.2-.2,.2s-.2-.09-.2-.2v-47.1c0-.11,.09-.2,.2-.2Z"/><path class="cls-2" d="M176.42,277.94c0-.85,.69-1.54,1.54-1.54s1.54,.69,1.54,1.54-.69,1.54-1.54,1.54-1.54-.69-1.54-1.54Z"/><path class="cls-2" d="M179.34,325.7c.1-.2,.16-.43,.16-.67,0-.85-.69-1.54-1.54-1.54s-1.54,.69-1.54,1.54c0,.24,.06,.46,.16,.67h2.76Z"/></g><g><path class="cls-2" d="M137.18,254.18s.07,0,.1,.03l40.79,23.55c.1,.06,.13,.18,.07,.28-.06,.1-.18,.13-.28,.07l-40.79-23.55c-.1-.06-.13-.18-.07-.28,.04-.07,.11-.1,.18-.1Z"/><path class="cls-2" d="M178.73,276.6c.74,.42,.99,1.37,.56,2.1-.42,.74-1.37,.99-2.1,.56-.74-.42-.99-1.37-.56-2.1,.42-.74,1.37-.99,2.1-.56Z"/><path class="cls-2" d="M137.94,253.06c-.74-.42-1.68-.17-2.1,.56-.43,.74-.17,1.68,.56,2.1,.74,.42,1.68,.17,2.1-.56,.42-.74,.17-1.68-.56-2.1Z"/></g><g><path class="cls-2" d="M137.18,254.18c.07,0,.14,.04,.18,.1,.06,.1,.02,.22-.07,.28l-40.79,23.55c-.1,.06-.22,.02-.28-.07-.06-.1-.02-.22,.07-.28l40.79-23.55s.07-.03,.1-.03Z"/><path class="cls-2" d="M136.41,253.06c.74-.42,1.68-.17,2.1,.56,.43,.74,.17,1.68-.56,2.1-.74,.42-1.68,.17-2.1-.56-.42-.74-.17-1.68,.56-2.1Z"/><path class="cls-2" d="M95.62,276.6c-.74,.42-.99,1.37-.56,2.1,.42,.74,1.37,.99,2.1,.56,.74-.42,.99-1.37,.56-2.1-.42-.74-1.37-.99-2.1-.56Z"/></g><g><path class="cls-2" d="M96.39,277.73c.11,0,.2,.09,.2,.2v47.1c0,.11-.09,.2-.2,.2s-.2-.09-.2-.2v-47.1c0-.11,.09-.2,.2-.2Z"/><path class="cls-2" d="M94.85,277.94c0-.85,.69-1.54,1.54-1.54s1.54,.69,1.54,1.54-.69,1.54-1.54,1.54-1.54-.69-1.54-1.54Z"/><path class="cls-2" d="M97.77,325.7c.1-.2,.16-.43,.16-.67,0-.85-.69-1.54-1.54-1.54s-1.54,.69-1.54,1.54c0,.24,.06,.46,.16,.67h2.76Z"/></g><path class="cls-2" d="M97.78,325.7c.35-.72,.09-1.59-.61-2-.74-.42-1.68-.17-2.1,.56-.26,.46-.27,.99-.05,1.44h2.77Z"/><path class="cls-2" d="M179.35,325.7c.21-.44,.21-.98-.05-1.44-.43-.74-1.37-.99-2.1-.56-.7,.41-.96,1.28-.61,2h2.77Z"/><g><path class="cls-2" d="M300.31,254.18s.07,0,.1,.03l40.78,23.55c.1,.06,.13,.18,.07,.28-.06,.1-.18,.13-.28,.07l-40.78-23.55c-.1-.06-.13-.18-.07-.28,.04-.07,.11-.1,.18-.1Z"/><path class="cls-2" d="M299.54,255.72c-.74-.43-.99-1.37-.56-2.1,.42-.74,1.37-.99,2.1-.56,.74,.43,.99,1.37,.56,2.1-.42,.74-1.37,.99-2.1,.56Z"/><path class="cls-2" d="M340.32,279.27c.74,.42,1.68,.17,2.1-.56,.42-.74,.17-1.68-.56-2.1-.74-.43-1.68-.17-2.1,.56-.43,.74-.17,1.68,.56,2.1Z"/></g><g><path class="cls-2" d="M259.52,183.54c.07,0,.14,.04,.18,.1,.06,.1,.02,.22-.08,.28l-40.79,23.55c-.1,.06-.22,.02-.28-.08-.06-.1-.02-.22,.08-.28l40.79-23.55s.07-.03,.1-.03Z"/><path class="cls-2" d="M258.75,182.41c.74-.42,1.68-.17,2.1,.56,.42,.74,.17,1.68-.56,2.1-.74,.42-1.68,.17-2.1-.56-.42-.74-.17-1.68,.56-2.1Z"/><path class="cls-2" d="M217.96,205.96c-.74,.42-.99,1.37-.56,2.1,.43,.74,1.37,.99,2.1,.56,.74-.42,.99-1.37,.56-2.1s-1.37-.99-2.1-.56Z"/></g><g><path class="cls-2" d="M218.73,207.09c.11,0,.2,.09,.2,.2v47.1c0,.11-.09,.2-.2,.2s-.2-.09-.2-.2v-47.1c0-.11,.09-.2,.2-.2Z"/><path class="cls-2" d="M217.19,207.29c0-.85,.69-1.54,1.54-1.54s1.54,.69,1.54,1.54-.69,1.54-1.54,1.54-1.54-.69-1.54-1.54Z"/><path class="cls-2" d="M217.19,254.39c0,.85,.69,1.54,1.54,1.54s1.54-.69,1.54-1.54-.69-1.54-1.54-1.54-1.54,.69-1.54,1.54Z"/></g><g><path class="cls-2" d="M218.74,254.18s.07,0,.1,.03l40.78,23.55c.1,.06,.13,.18,.08,.28-.06,.1-.18,.13-.28,.07l-40.78-23.55c-.1-.06-.13-.18-.07-.28,.04-.07,.11-.1,.18-.1Z"/><path class="cls-2" d="M217.97,255.72c-.74-.43-.99-1.37-.56-2.1,.42-.74,1.37-.99,2.1-.56,.74,.43,.99,1.37,.56,2.1-.43,.74-1.37,.99-2.1,.56Z"/><path class="cls-2" d="M258.75,279.27c.74,.42,1.68,.17,2.1-.56,.43-.74,.17-1.68-.56-2.1-.74-.43-1.68-.17-2.1,.56-.43,.74-.17,1.68,.56,2.1Z"/></g><g><path class="cls-2" d="M300.31,254.18c.07,0,.14,.04,.18,.1,.06,.1,.02,.22-.08,.28l-40.79,23.55c-.1,.06-.22,.02-.28-.07-.06-.1-.02-.22,.07-.28l40.79-23.55s.07-.03,.1-.03Z"/><path class="cls-2" d="M260.29,279.27c-.74,.42-1.68,.17-2.1-.56-.42-.74-.17-1.68,.56-2.1,.74-.43,1.68-.17,2.1,.56,.42,.74,.17,1.68-.56,2.1Z"/><path class="cls-2" d="M301.08,255.72c.74-.43,.99-1.37,.56-2.1-.42-.74-1.37-.99-2.1-.56-.74,.42-.99,1.37-.56,2.1,.42,.74,1.37,.99,2.1,.56Z"/></g><g><path class="cls-2" d="M218.74,207.09c.11,0,.2,.09,.2,.2v47.1c0,.11-.09,.2-.2,.2s-.2-.09-.2-.2v-47.1c0-.11,.09-.2,.2-.2Z"/><path class="cls-2" d="M217.2,207.29c0-.85,.69-1.54,1.54-1.54s1.54,.69,1.54,1.54-.69,1.54-1.54,1.54-1.54-.69-1.54-1.54Z"/><path class="cls-2" d="M217.2,254.39c0,.85,.69,1.54,1.54,1.54s1.54-.69,1.54-1.54-.69-1.54-1.54-1.54-1.54,.69-1.54,1.54Z"/></g><g><path class="cls-2" d="M177.95,183.54s.07,0,.1,.03l40.79,23.55c.1,.06,.13,.18,.07,.28-.06,.1-.18,.13-.28,.08l-40.79-23.55c-.1-.06-.13-.18-.07-.28,.04-.07,.11-.1,.18-.1Z"/><path class="cls-2" d="M219.51,205.96c.74,.42,.99,1.37,.56,2.1-.42,.74-1.37,.99-2.1,.56-.74-.42-.99-1.37-.56-2.1,.43-.74,1.37-.99,2.1-.56Z"/><path class="cls-2" d="M178.72,182.41c-.74-.42-1.68-.17-2.1,.56-.43,.74-.17,1.68,.56,2.1,.74,.42,1.68,.17,2.1-.56,.42-.74,.17-1.68-.56-2.1Z"/></g><g><path class="cls-2" d="M177.95,183.54c.07,0,.14,.04,.18,.1,.06,.1,.02,.22-.07,.28l-40.79,23.55c-.1,.06-.22,.02-.28-.08-.06-.1-.02-.22,.07-.28l40.79-23.55s.07-.03,.1-.03Z"/><path class="cls-2" d="M177.18,182.41c.74-.42,1.68-.17,2.1,.56,.42,.74,.17,1.68-.56,2.1-.74,.42-1.68,.17-2.1-.56-.43-.74-.17-1.68,.56-2.1Z"/><path class="cls-2" d="M136.4,205.96c-.74,.42-.99,1.37-.56,2.1,.42,.74,1.37,.99,2.1,.56,.74-.42,.99-1.37,.56-2.1-.42-.74-1.37-.99-2.1-.56Z"/></g><g><path class="cls-2" d="M137.17,207.09c.11,0,.2,.09,.2,.2v47.1c0,.11-.09,.2-.2,.2s-.2-.09-.2-.2v-47.1c0-.11,.09-.2,.2-.2Z"/><path class="cls-2" d="M135.63,207.29c0-.85,.69-1.54,1.54-1.54s1.54,.69,1.54,1.54-.69,1.54-1.54,1.54-1.54-.69-1.54-1.54Z"/><path class="cls-2" d="M135.63,254.39c0,.85,.69,1.54,1.54,1.54s1.54-.69,1.54-1.54-.69-1.54-1.54-1.54-1.54,.69-1.54,1.54Z"/></g><g><path class="cls-2" d="M137.18,254.18s.07,0,.1,.03l40.78,23.55c.1,.06,.13,.18,.07,.28-.06,.1-.18,.13-.28,.07l-40.78-23.55c-.1-.06-.13-.18-.07-.28,.04-.07,.11-.1,.18-.1Z"/><path class="cls-2" d="M136.41,255.72c-.74-.43-.99-1.37-.56-2.1,.43-.74,1.37-.99,2.1-.56,.74,.43,.99,1.37,.56,2.1-.43,.74-1.37,.99-2.1,.56Z"/><path class="cls-2" d="M177.18,279.27c.74,.42,1.68,.17,2.1-.56,.43-.74,.17-1.68-.56-2.1-.74-.43-1.68-.17-2.1,.56-.43,.74-.17,1.68,.56,2.1Z"/></g><g><path class="cls-2" d="M218.74,254.18c.07,0,.14,.04,.18,.1,.06,.1,.02,.22-.07,.28l-40.79,23.55c-.1,.06-.22,.02-.28-.07-.06-.1-.02-.22,.07-.28l40.79-23.55s.07-.03,.1-.03Z"/><path class="cls-2" d="M178.72,279.27c-.74,.42-1.68,.17-2.1-.56-.43-.74-.17-1.68,.56-2.1,.74-.43,1.68-.17,2.1,.56,.42,.74,.17,1.68-.56,2.1Z"/><path class="cls-2" d="M219.51,255.72c.74-.43,.99-1.37,.56-2.1-.42-.74-1.37-.99-2.1-.56s-.99,1.37-.56,2.1c.43,.74,1.37,.99,2.1,.56Z"/></g><g><path class="cls-2" d="M137.18,207.09c.11,0,.2,.09,.2,.2v47.1c0,.11-.09,.2-.2,.2s-.2-.09-.2-.2v-47.1c0-.11,.09-.2,.2-.2Z"/><path class="cls-2" d="M135.64,207.29c0-.85,.69-1.54,1.54-1.54s1.54,.69,1.54,1.54-.69,1.54-1.54,1.54-1.54-.69-1.54-1.54Z"/><path class="cls-2" d="M135.64,254.39c0,.85,.69,1.54,1.54,1.54s1.54-.69,1.54-1.54-.69-1.54-1.54-1.54-1.54,.69-1.54,1.54Z"/></g><g><path class="cls-2" d="M96.39,183.54s.07,0,.1,.03l40.79,23.55c.1,.06,.13,.18,.07,.28-.06,.1-.18,.13-.28,.08l-40.79-23.55c-.1-.06-.13-.18-.07-.28,.04-.07,.11-.1,.18-.1Z"/><path class="cls-2" d="M137.94,205.96c.74,.42,.99,1.37,.56,2.1-.43,.74-1.37,.99-2.1,.56-.74-.42-.99-1.37-.56-2.1,.43-.74,1.37-.99,2.1-.56Z"/><path class="cls-2" d="M97.16,182.41c-.74-.42-1.68-.17-2.1,.56-.42,.74-.17,1.68,.56,2.1,.74,.42,1.68,.17,2.1-.56,.43-.74,.17-1.68-.56-2.1Z"/></g><g><path class="cls-2" d="M96.39,183.54c.07,0,.14,.04,.18,.1,.06,.1,.02,.22-.08,.28l-40.79,23.55c-.1,.06-.22,.02-.28-.08-.06-.1-.02-.22,.07-.28l40.79-23.55s.07-.03,.1-.03Z"/><path class="cls-2" d="M95.62,182.41c.74-.42,1.68-.17,2.1,.56,.42,.74,.17,1.68-.56,2.1-.74,.42-1.68,.17-2.1-.56-.42-.74-.17-1.68,.56-2.1Z"/><path class="cls-2" d="M54.83,205.96c-.74,.42-.99,1.37-.56,2.1,.42,.74,1.37,.99,2.1,.56,.74-.42,.99-1.37,.56-2.1-.43-.74-1.37-.99-2.1-.56Z"/></g><g><path class="cls-2" d="M55.6,207.09c.11,0,.2,.09,.2,.2v47.1c0,.11-.09,.2-.2,.2s-.2-.09-.2-.2v-47.1c0-.11,.09-.2,.2-.2Z"/><path class="cls-2" d="M54.06,207.29c0-.85,.69-1.54,1.54-1.54s1.54,.69,1.54,1.54c0,.85-.69,1.54-1.54,1.54s-1.54-.69-1.54-1.54Z"/><path class="cls-2" d="M54.06,254.39c0,.85,.69,1.54,1.54,1.54s1.54-.69,1.54-1.54-.69-1.54-1.54-1.54-1.54,.69-1.54,1.54Z"/></g><g><path class="cls-2" d="M55.61,254.18s.07,0,.1,.03l40.78,23.55c.1,.06,.13,.18,.08,.28-.06,.1-.18,.13-.28,.07l-40.78-23.55c-.1-.06-.13-.18-.07-.28,.04-.07,.11-.1,.18-.1Z"/><path class="cls-2" d="M54.84,255.72c-.74-.43-.99-1.37-.56-2.1s1.37-.99,2.1-.56c.74,.43,.99,1.37,.56,2.1-.42,.74-1.37,.99-2.1,.56Z"/><path class="cls-2" d="M95.62,279.27c.74,.42,1.68,.17,2.1-.56,.43-.74,.17-1.68-.56-2.1-.74-.43-1.68-.17-2.1,.56-.42,.74-.17,1.68,.56,2.1Z"/></g><g><path class="cls-2" d="M137.18,254.18c.07,0,.14,.04,.18,.1,.06,.1,.02,.22-.07,.28l-40.79,23.55c-.1,.06-.22,.02-.28-.07-.06-.1-.02-.22,.07-.28l40.79-23.55s.07-.03,.1-.03Z"/><path class="cls-2" d="M97.16,279.27c-.74,.42-1.68,.17-2.1-.56-.42-.74-.17-1.68,.56-2.1,.74-.43,1.68-.17,2.1,.56,.43,.74,.17,1.68-.56,2.1Z"/><path class="cls-2" d="M137.94,255.72c.74-.43,.99-1.37,.56-2.1-.43-.74-1.37-.99-2.1-.56-.74,.42-.99,1.37-.56,2.1,.43,.74,1.37,.99,2.1,.56Z"/></g><g><path class="cls-2" d="M218.74,112.89c.07,0,.14,.04,.18,.1,.06,.1,.02,.22-.07,.28l-40.79,23.55c-.1,.06-.22,.02-.28-.07-.06-.1-.02-.22,.07-.28l40.79-23.55s.07-.03,.1-.03Z"/><path class="cls-2" d="M217.97,111.77c.74-.43,1.68-.17,2.1,.56,.42,.74,.17,1.68-.56,2.1-.74,.43-1.68,.17-2.1-.56-.42-.74-.17-1.68,.56-2.1Z"/><path class="cls-2" d="M177.18,135.31c-.74,.42-.99,1.37-.56,2.1,.42,.74,1.37,.99,2.1,.56s.99-1.37,.56-2.1c-.43-.74-1.37-.99-2.1-.56Z"/></g><g><path class="cls-2" d="M177.95,136.44c.11,0,.2,.09,.2,.2v47.1c0,.11-.09,.2-.2,.2s-.2-.09-.2-.2v-47.1c0-.11,.09-.2,.2-.2Z"/><path class="cls-2" d="M176.41,136.65c0-.85,.69-1.54,1.54-1.54s1.54,.69,1.54,1.54-.69,1.54-1.54,1.54-1.54-.69-1.54-1.54Z"/><path class="cls-2" d="M176.42,183.74c0,.85,.69,1.54,1.54,1.54s1.54-.69,1.54-1.54-.69-1.54-1.54-1.54c-.85,0-1.54,.69-1.54,1.54Z"/></g><g><path class="cls-2" d="M177.96,183.54s.07,0,.1,.03l40.78,23.55c.1,.06,.13,.18,.07,.28-.06,.1-.18,.13-.28,.08l-40.78-23.55c-.1-.06-.13-.18-.08-.28,.04-.07,.11-.1,.18-.1Z"/><path class="cls-2" d="M177.19,185.08c-.74-.42-.99-1.37-.56-2.1,.42-.74,1.37-.99,2.1-.56,.74,.42,.99,1.37,.56,2.1s-1.37,.99-2.1,.56Z"/><path class="cls-2" d="M217.97,208.62c.74,.43,1.68,.17,2.1-.56,.42-.74,.17-1.68-.56-2.1-.74-.43-1.68-.17-2.1,.56-.43,.74-.17,1.68,.56,2.1Z"/></g><g><path class="cls-2" d="M259.53,183.54c.07,0,.14,.04,.18,.1,.06,.1,.02,.22-.08,.28l-40.79,23.55c-.1,.06-.22,.02-.28-.08-.06-.1-.02-.22,.07-.28l40.79-23.55s.07-.03,.1-.03Z"/><path class="cls-2" d="M219.51,208.62c-.74,.43-1.68,.17-2.1-.56-.42-.74-.17-1.68,.56-2.1,.74-.42,1.68-.17,2.1,.56s.17,1.68-.56,2.1Z"/><path class="cls-2" d="M260.3,185.08c.74-.42,.99-1.37,.56-2.1-.43-.74-1.37-.99-2.1-.56-.74,.43-.99,1.37-.56,2.1,.42,.74,1.37,.99,2.1,.56Z"/></g><g><path class="cls-2" d="M177.96,136.44c.11,0,.2,.09,.2,.2v47.1c0,.11-.09,.2-.2,.2s-.2-.09-.2-.2v-47.1c0-.11,.09-.2,.2-.2Z"/><path class="cls-2" d="M176.42,136.65c0-.85,.69-1.54,1.54-1.54s1.54,.69,1.54,1.54-.69,1.54-1.54,1.54-1.54-.69-1.54-1.54Z"/><path class="cls-2" d="M176.42,183.74c0,.85,.69,1.54,1.54,1.54s1.54-.69,1.54-1.54-.69-1.54-1.54-1.54-1.54,.69-1.54,1.54Z"/></g><g><path class="cls-2" d="M137.18,112.89s.07,0,.1,.03l40.79,23.55c.1,.06,.13,.18,.07,.28-.06,.1-.18,.13-.28,.07l-40.79-23.55c-.1-.06-.13-.18-.07-.28,.04-.07,.11-.1,.18-.1Z"/><path class="cls-2" d="M178.73,135.31c.74,.42,.99,1.37,.56,2.1-.42,.74-1.37,.99-2.1,.56s-.99-1.37-.56-2.1c.42-.74,1.37-.99,2.1-.56Z"/><path class="cls-2" d="M137.94,111.77c-.74-.43-1.68-.17-2.1,.56-.43,.74-.17,1.68,.56,2.1,.74,.43,1.68,.17,2.1-.56,.42-.74,.17-1.68-.56-2.1Z"/></g><g><path class="cls-2" d="M137.18,112.89c.07,0,.14,.04,.18,.1,.06,.1,.02,.22-.07,.28l-40.79,23.55c-.1,.06-.22,.02-.28-.07-.06-.1-.02-.22,.07-.28l40.79-23.55s.07-.03,.1-.03Z"/><path class="cls-2" d="M136.41,111.77c.74-.43,1.68-.17,2.1,.56,.43,.74,.17,1.68-.56,2.1-.74,.43-1.68,.17-2.1-.56-.42-.74-.17-1.68,.56-2.1Z"/><path class="cls-2" d="M95.62,135.31c-.74,.42-.99,1.37-.56,2.1,.42,.74,1.37,.99,2.1,.56s.99-1.37,.56-2.1c-.42-.74-1.37-.99-2.1-.56Z"/></g><g><path class="cls-2" d="M96.39,136.44c.11,0,.2,.09,.2,.2v47.1c0,.11-.09,.2-.2,.2s-.2-.09-.2-.2v-47.1c0-.11,.09-.2,.2-.2Z"/><path class="cls-2" d="M94.85,136.65c0-.85,.69-1.54,1.54-1.54s1.54,.69,1.54,1.54-.69,1.54-1.54,1.54-1.54-.69-1.54-1.54Z"/><path class="cls-2" d="M94.85,183.74c0,.85,.69,1.54,1.54,1.54s1.54-.69,1.54-1.54-.69-1.54-1.54-1.54c-.85,0-1.54,.69-1.54,1.54Z"/></g><g><path class="cls-2" d="M96.4,183.54s.07,0,.1,.03l40.78,23.55c.1,.06,.13,.18,.07,.28-.06,.1-.18,.13-.28,.08l-40.78-23.55c-.1-.06-.13-.18-.07-.28,.04-.07,.11-.1,.18-.1Z"/><path class="cls-2" d="M95.63,185.08c-.74-.42-.99-1.37-.56-2.1,.43-.74,1.37-.99,2.1-.56,.74,.42,.99,1.37,.56,2.1-.43,.74-1.37,.99-2.1,.56Z"/><path class="cls-2" d="M136.41,208.62c.74,.43,1.68,.17,2.1-.56,.43-.74,.17-1.68-.56-2.1-.74-.43-1.68-.17-2.1,.56-.42,.74-.17,1.68,.56,2.1Z"/></g><g><path class="cls-2" d="M177.96,183.54c.07,0,.14,.04,.18,.1,.06,.1,.02,.22-.07,.28l-40.79,23.55c-.1,.06-.22,.02-.28-.08-.06-.1-.02-.22,.07-.28l40.79-23.55s.07-.03,.1-.03Z"/><path class="cls-2" d="M137.94,208.62c-.74,.43-1.68,.17-2.1-.56-.43-.74-.17-1.68,.56-2.1,.74-.42,1.68-.17,2.1,.56,.42,.74,.17,1.68-.56,2.1Z"/><path class="cls-2" d="M178.73,185.08c.74-.42,.99-1.37,.56-2.1-.42-.74-1.37-.99-2.1-.56s-.99,1.37-.56,2.1c.42,.74,1.37,.99,2.1,.56Z"/></g><g><path class="cls-2" d="M218.73,65.8c.11,0,.2,.09,.2,.2v47.1c0,.11-.09,.2-.2,.2s-.2-.09-.2-.2v-47.1c0-.11,.09-.2,.2-.2Z"/><path class="cls-2" d="M217.19,66c0-.85,.69-1.54,1.54-1.54s1.54,.69,1.54,1.54-.69,1.54-1.54,1.54-1.54-.69-1.54-1.54Z"/><path class="cls-2" d="M217.19,113.1c0,.85,.69,1.54,1.54,1.54s1.54-.69,1.54-1.54-.69-1.54-1.54-1.54-1.54,.69-1.54,1.54Z"/></g><g><path class="cls-2" d="M218.74,65.8c.11,0,.2,.09,.2,.2v47.1c0,.11-.09,.2-.2,.2s-.2-.09-.2-.2v-47.1c0-.11,.09-.2,.2-.2Z"/><path class="cls-2" d="M217.2,66c0-.85,.69-1.54,1.54-1.54s1.54,.69,1.54,1.54-.69,1.54-1.54,1.54-1.54-.69-1.54-1.54Z"/><path class="cls-2" d="M217.2,113.1c0,.85,.69,1.54,1.54,1.54s1.54-.69,1.54-1.54-.69-1.54-1.54-1.54-1.54,.69-1.54,1.54Z"/></g><g><path class="cls-2" d="M177.95,42.25s.07,0,.1,.03l40.79,23.55c.1,.06,.13,.18,.07,.28-.06,.1-.18,.13-.28,.07l-40.79-23.55c-.1-.06-.13-.18-.07-.28,.04-.07,.11-.1,.18-.1Z"/><path class="cls-2" d="M219.51,64.67c.74,.43,.99,1.37,.56,2.1-.42,.74-1.37,.99-2.1,.56s-.99-1.37-.56-2.1c.43-.74,1.37-.99,2.1-.56Z"/><path class="cls-2" d="M178.72,41.12c-.74-.42-1.68-.17-2.1,.56-.43,.74-.17,1.68,.56,2.1,.74,.42,1.68,.17,2.1-.56,.42-.74,.17-1.68-.56-2.1Z"/></g><g><path class="cls-2" d="M177.95,42.25c.07,0,.14,.04,.18,.1,.06,.1,.02,.22-.07,.28l-40.79,23.55c-.1,.06-.22,.02-.28-.07-.06-.1-.02-.22,.07-.28l40.79-23.55s.07-.03,.1-.03Z"/><path class="cls-2" d="M177.18,41.12c.74-.42,1.68-.17,2.1,.56,.42,.74,.17,1.68-.56,2.1s-1.68,.17-2.1-.56c-.43-.74-.17-1.68,.56-2.1Z"/><path class="cls-2" d="M136.4,64.67c-.74,.43-.99,1.37-.56,2.1,.42,.74,1.37,.99,2.1,.56,.74-.42,.99-1.37,.56-2.1-.42-.74-1.37-.99-2.1-.56Z"/></g><g><path class="cls-2" d="M137.17,65.8c.11,0,.2,.09,.2,.2v47.1c0,.11-.09,.2-.2,.2s-.2-.09-.2-.2v-47.1c0-.11,.09-.2,.2-.2Z"/><path class="cls-2" d="M135.63,66c0-.85,.69-1.54,1.54-1.54s1.54,.69,1.54,1.54-.69,1.54-1.54,1.54-1.54-.69-1.54-1.54Z"/><path class="cls-2" d="M135.63,113.1c0,.85,.69,1.54,1.54,1.54s1.54-.69,1.54-1.54-.69-1.54-1.54-1.54-1.54,.69-1.54,1.54Z"/></g><g><path class="cls-2" d="M137.18,112.89s.07,0,.1,.03l40.78,23.55c.1,.06,.13,.18,.07,.28-.06,.1-.18,.13-.28,.07l-40.78-23.55c-.1-.06-.13-.18-.07-.28,.04-.07,.11-.1,.18-.1Z"/><path class="cls-2" d="M136.41,114.43c-.74-.43-.99-1.37-.56-2.1,.43-.74,1.37-.99,2.1-.56,.74,.43,.99,1.37,.56,2.1-.43,.74-1.37,.99-2.1,.56Z"/><path class="cls-2" d="M177.18,137.98c.74,.43,1.68,.17,2.1-.56,.43-.74,.17-1.68-.56-2.1-.74-.42-1.68-.17-2.1,.56-.43,.74-.17,1.68,.56,2.1Z"/></g><g><path class="cls-2" d="M218.74,112.89c.07,0,.14,.04,.18,.1,.06,.1,.02,.22-.07,.28l-40.79,23.55c-.1,.06-.22,.02-.28-.07-.06-.1-.02-.22,.07-.28l40.79-23.55s.07-.03,.1-.03Z"/><path class="cls-2" d="M178.72,137.98c-.74,.43-1.68,.17-2.1-.56-.43-.74-.17-1.68,.56-2.1,.74-.42,1.68-.17,2.1,.56,.42,.74,.17,1.68-.56,2.1Z"/><path class="cls-2" d="M219.51,114.43c.74-.42,.99-1.37,.56-2.1-.42-.74-1.37-.99-2.1-.56-.74,.42-.99,1.37-.56,2.1,.43,.74,1.37,.99,2.1,.56Z"/></g><g><path class="cls-2" d="M137.18,65.8c.11,0,.2,.09,.2,.2v47.1c0,.11-.09,.2-.2,.2s-.2-.09-.2-.2v-47.1c0-.11,.09-.2,.2-.2Z"/><path class="cls-2" d="M135.64,66c0-.85,.69-1.54,1.54-1.54s1.54,.69,1.54,1.54-.69,1.54-1.54,1.54-1.54-.69-1.54-1.54Z"/><path class="cls-2" d="M135.64,113.1c0,.85,.69,1.54,1.54,1.54s1.54-.69,1.54-1.54-.69-1.54-1.54-1.54-1.54,.69-1.54,1.54Z"/></g><g><path class="cls-2" d="M96.39,42.25s.07,0,.1,.03l40.79,23.55c.1,.06,.13,.18,.07,.28-.06,.1-.18,.13-.28,.07l-40.79-23.55c-.1-.06-.13-.18-.07-.28,.04-.07,.11-.1,.18-.1Z"/><path class="cls-2" d="M137.94,64.67c.74,.43,.99,1.37,.56,2.1-.43,.74-1.37,.99-2.1,.56-.74-.42-.99-1.37-.56-2.1,.43-.74,1.37-.99,2.1-.56Z"/><path class="cls-2" d="M97.16,41.12c-.74-.42-1.68-.17-2.1,.56-.42,.74-.17,1.68,.56,2.1,.74,.42,1.68,.17,2.1-.56,.43-.74,.17-1.68-.56-2.1Z"/></g><g><path class="cls-2" d="M96.39,42.25c.07,0,.14,.04,.18,.1,.06,.1,.02,.22-.08,.28l-40.79,23.55c-.1,.06-.22,.02-.28-.07-.06-.1-.02-.22,.07-.28l40.79-23.55s.07-.03,.1-.03Z"/><path class="cls-2" d="M95.62,41.12c.74-.42,1.68-.17,2.1,.56,.42,.74,.17,1.68-.56,2.1s-1.68,.17-2.1-.56c-.42-.74-.17-1.68,.56-2.1Z"/><path class="cls-2" d="M54.83,64.67c-.74,.43-.99,1.37-.56,2.1,.42,.74,1.37,.99,2.1,.56,.74-.42,.99-1.37,.56-2.1-.43-.74-1.37-.99-2.1-.56Z"/></g><g><path class="cls-2" d="M55.6,65.8c.11,0,.2,.09,.2,.2v47.1c0,.11-.09,.2-.2,.2s-.2-.09-.2-.2v-47.1c0-.11,.09-.2,.2-.2Z"/><path class="cls-2" d="M54.06,66c0-.85,.69-1.54,1.54-1.54s1.54,.69,1.54,1.54c0,.85-.69,1.54-1.54,1.54s-1.54-.69-1.54-1.54Z"/><path class="cls-2" d="M54.06,113.1c0,.85,.69,1.54,1.54,1.54s1.54-.69,1.54-1.54-.69-1.54-1.54-1.54-1.54,.69-1.54,1.54Z"/></g><g><path class="cls-2" d="M55.61,112.89s.07,0,.1,.03l40.78,23.55c.1,.06,.13,.18,.08,.28-.06,.1-.18,.13-.28,.07l-40.78-23.55c-.1-.06-.13-.18-.07-.28,.04-.07,.11-.1,.18-.1Z"/><path class="cls-2" d="M54.84,114.43c-.74-.43-.99-1.37-.56-2.1,.43-.74,1.37-.99,2.1-.56,.74,.43,.99,1.37,.56,2.1-.42,.74-1.37,.99-2.1,.56Z"/><path class="cls-2" d="M95.62,137.98c.74,.43,1.68,.17,2.1-.56,.43-.74,.17-1.68-.56-2.1s-1.68-.17-2.1,.56-.17,1.68,.56,2.1Z"/></g><g><path class="cls-2" d="M137.18,112.89c.07,0,.14,.04,.18,.1,.06,.1,.02,.22-.07,.28l-40.79,23.55c-.1,.06-.22,.02-.28-.07-.06-.1-.02-.22,.07-.28l40.79-23.55s.07-.03,.1-.03Z"/><path class="cls-2" d="M97.16,137.98c-.74,.43-1.68,.17-2.1-.56-.42-.74-.17-1.68,.56-2.1,.74-.42,1.68-.17,2.1,.56,.43,.74,.17,1.68-.56,2.1Z"/><path class="cls-2" d="M137.94,114.43c.74-.42,.99-1.37,.56-2.1-.43-.74-1.37-.99-2.1-.56-.74,.42-.99,1.37-.56,2.1,.43,.74,1.37,.99,2.1,.56Z"/></g><g><path class="cls-2" d="M177.75,0V42.45c0,.11,.09,.2,.21,.2s.2-.09,.2-.2V0h-.41Z"/><path class="cls-2" d="M176.42,42.45c0,.85,.69,1.54,1.54,1.54s1.54-.69,1.54-1.54-.69-1.54-1.54-1.54-1.54,.69-1.54,1.54Z"/></g><g><path class="cls-2" d="M177.96,42.25s.07,0,.1,.03l40.78,23.55c.1,.06,.13,.18,.07,.28-.06,.1-.18,.13-.28,.07l-40.78-23.55c-.1-.06-.13-.18-.08-.28,.04-.07,.11-.1,.18-.1Z"/><path class="cls-2" d="M177.19,43.79c-.74-.43-.99-1.37-.56-2.1,.42-.74,1.37-.99,2.1-.56,.74,.43,.99,1.37,.56,2.1-.43,.74-1.37,.99-2.1,.56Z"/><path class="cls-2" d="M217.97,67.33c.74,.43,1.68,.17,2.1-.56,.42-.74,.17-1.68-.56-2.1-.74-.43-1.68-.17-2.1,.56-.43,.74-.17,1.68,.56,2.1Z"/></g><g><path class="cls-2" d="M177.76,0V42.45c0,.11,.09,.2,.2,.2s.2-.09,.2-.2V0h-.41Z"/><path class="cls-2" d="M176.42,42.45c0,.85,.69,1.54,1.54,1.54s1.54-.69,1.54-1.54-.69-1.54-1.54-1.54-1.54,.69-1.54,1.54Z"/></g><g><path class="cls-2" d="M96.18,0V42.45c0,.11,.09,.2,.21,.2s.2-.09,.2-.2V0h-.41Z"/><path class="cls-2" d="M94.85,42.45c0,.85,.69,1.54,1.54,1.54s1.54-.69,1.54-1.54-.69-1.54-1.54-1.54-1.54,.69-1.54,1.54Z"/></g><g><path class="cls-2" d="M96.4,42.25s.07,0,.1,.03l40.78,23.55c.1,.06,.13,.18,.07,.28-.06,.1-.18,.13-.28,.07l-40.78-23.55c-.1-.06-.13-.18-.07-.28,.04-.07,.11-.1,.18-.1Z"/><path class="cls-2" d="M95.63,43.79c-.74-.43-.99-1.37-.56-2.1,.43-.74,1.37-.99,2.1-.56,.74,.43,.99,1.37,.56,2.1-.43,.74-1.37,.99-2.1,.56Z"/><path class="cls-2" d="M136.41,67.33c.74,.43,1.68,.17,2.1-.56,.43-.74,.17-1.68-.56-2.1-.74-.43-1.68-.17-2.1,.56-.42,.74-.17,1.68,.56,2.1Z"/></g><g><path class="cls-2" d="M177.96,42.25c.07,0,.14,.04,.18,.1,.06,.1,.02,.22-.07,.28l-40.79,23.55c-.1,.06-.22,.02-.28-.07-.06-.1-.02-.22,.07-.28l40.79-23.55s.07-.03,.1-.03Z"/><path class="cls-2" d="M137.94,67.33c-.74,.43-1.68,.17-2.1-.56-.43-.74-.17-1.68,.56-2.1,.74-.43,1.68-.17,2.1,.56,.42,.74,.17,1.68-.56,2.1Z"/><path class="cls-2" d="M178.73,43.79c.74-.43,.99-1.37,.56-2.1-.42-.74-1.37-.99-2.1-.56-.74,.42-.99,1.37-.56,2.1,.42,.74,1.37,.99,2.1,.56Z"/></g></g><g><path class="cls-2" d="M4.27,0h-.82L35.77,18.65c.1,.06,.22,.02,.28-.07,.06-.1,.02-.22-.07-.28L4.27,0Z"/><path class="cls-2" d="M0,84.87l35.98-20.77c.1-.06,.13-.18,.07-.28-.04-.07-.11-.1-.18-.1-.04,0-.07,0-.1,.03L0,84.4v.47Z"/><path class="cls-2" d="M35.88,18.27c.11,0,.2,.09,.2,.2V63.92c0,.11-.09,.2-.2,.2s-.2-.09-.2-.2V18.48c0-.11,.09-.2,.2-.2Z"/><path class="cls-2" d="M4.28,0h-.82L35.77,18.65c.1,.06,.22,.02,.28-.07,.06-.1,.02-.22-.07-.28L4.28,0Z"/><path class="cls-2" d="M35.87,18.27c.11,0,.2,.09,.2,.2V63.92c0,.11-.09,.2-.2,.2s-.2-.09-.2-.2V18.48c0-.11,.09-.2,.2-.2Z"/><path class="cls-2" d="M35.87,63.72s.07,0,.1,.03l39.36,22.72c.1,.06,.13,.18,.07,.28-.06,.1-.18,.13-.28,.08l-39.36-22.72c-.1-.06-.13-.18-.08-.28,.04-.07,.11-.1,.18-.1Z"/><path class="cls-2" d="M0,134.34l35.77,20.65c.1,.06,.22,.02,.28-.08,.06-.1,.02-.22-.07-.28L0,133.87v.47Z"/><path class="cls-2" d="M75.23,131.89c.07,0,.14,.04,.18,.1,.06,.1,.02,.22-.07,.28l-39.36,22.72c-.1,.06-.22,.02-.28-.07-.06-.1-.02-.22,.08-.28l39.36-22.72s.07-.03,.1-.03Z"/><path class="cls-2" d="M75.23,86.44c.11,0,.2,.09,.2,.2v45.45c0,.11-.09,.2-.2,.2s-.2-.09-.2-.2v-45.45c0-.11,.09-.2,.2-.2Z"/><path class="cls-2" d="M35.87,63.72s.07,0,.1,.03l39.35,22.72c.1,.06,.13,.18,.07,.28-.06,.1-.18,.13-.28,.08l-39.35-22.72c-.1-.06-.13-.18-.08-.28,.04-.07,.11-.1,.18-.1Z"/><path class="cls-2" d="M0,84.87l35.97-20.77c.1-.06,.13-.18,.07-.28-.04-.07-.11-.1-.18-.1-.03,0-.07,0-.1,.03L0,84.4v.47Z"/><path class="cls-2" d="M75.22,86.44c.11,0,.2,.09,.2,.2v45.45c0,.11-.09,.2-.2,.2s-.2-.09-.2-.2v-45.45c0-.11,.09-.2,.2-.2Z"/><path class="cls-2" d="M0,221.21l35.98-20.77c.1-.06,.13-.18,.07-.28-.04-.07-.11-.1-.18-.1-.04,0-.07,0-.1,.03L0,220.74v.47Z"/><path class="cls-2" d="M35.88,154.61c.11,0,.2,.09,.2,.2v45.45c0,.11-.09,.2-.2,.2s-.2-.09-.2-.2v-45.45c0-.11,.09-.2,.2-.2Z"/><path class="cls-2" d="M0,134.34l35.77,20.65c.1,.06,.22,.02,.28-.08,.06-.1,.02-.22-.07-.28L0,133.87v.47Z"/><path class="cls-2" d="M35.87,154.61c.11,0,.2,.09,.2,.2v45.45c0,.11-.09,.2-.2,.2s-.2-.09-.2-.2v-45.45c0-.11,.09-.2,.2-.2Z"/><path class="cls-2" d="M35.87,200.06s.07,0,.1,.03l39.36,22.72c.1,.06,.13,.18,.07,.28s-.18,.13-.28,.08l-39.36-22.72c-.1-.06-.13-.18-.08-.28,.04-.07,.11-.1,.18-.1Z"/><path class="cls-2" d="M75.23,131.89c.07,0,.14,.04,.18,.1,.06,.1,.02,.22-.07,.28l-39.36,22.72c-.1,.06-.22,.02-.28-.07-.06-.1-.02-.22,.08-.28l39.36-22.72s.07-.03,.1-.03Z"/><path class="cls-2" d="M0,270.68l35.77,20.65c.1,.06,.22,.02,.28-.07,.06-.1,.02-.22-.07-.28L0,270.21v.47Z"/><path class="cls-2" d="M75.23,268.23c.07,0,.14,.04,.18,.1,.06,.1,.02,.22-.07,.28l-39.36,22.72c-.1,.06-.22,.02-.28-.08-.06-.1-.02-.22,.08-.28l39.36-22.72s.07-.03,.1-.03Z"/><path class="cls-2" d="M75.23,222.78c.11,0,.2,.09,.2,.2v45.45c0,.11-.09,.2-.2,.2s-.2-.09-.2-.2v-45.45c0-.11,.09-.2,.2-.2Z"/><path class="cls-2" d="M35.87,200.06s.07,0,.1,.03l39.35,22.72c.1,.06,.13,.18,.07,.28-.06,.1-.18,.13-.28,.08l-39.35-22.72c-.1-.06-.13-.18-.08-.28,.04-.07,.11-.1,.18-.1Z"/><path class="cls-2" d="M0,221.21l35.97-20.77c.1-.06,.13-.18,.07-.28-.04-.07-.11-.1-.18-.1-.03,0-.07,0-.1,.03L0,220.73v.47Z"/><path class="cls-2" d="M75.22,222.78c.11,0,.2,.09,.2,.2v45.45c0,.11-.09,.2-.2,.2s-.2-.09-.2-.2v-45.45c0-.11,.09-.2,.2-.2Z"/><path class="cls-2" d="M75.22,268.23s.07,0,.1,.03l39.36,22.72c.1,.06,.13,.18,.07,.28-.06,.1-.18,.13-.28,.08l-39.36-22.72c-.1-.06-.13-.18-.07-.28,.04-.07,.11-.1,.18-.1Z"/><path class="cls-2" d="M36.08,325.7v-34.55c0-.11-.09-.2-.21-.2s-.2,.09-.2,.2v34.55h.41Z"/><path class="cls-2" d="M0,270.68l35.77,20.65c.1,.06,.22,.02,.28-.07,.06-.1,.02-.22-.07-.28L0,270.21v.47Z"/><path class="cls-2" d="M36.07,325.7v-34.55c0-.11-.09-.2-.2-.2s-.2,.09-.2,.2v34.55h.41Z"/><path class="cls-2" d="M114.79,325.7v-34.55c0-.11-.09-.2-.21-.2s-.21,.09-.21,.2v34.55h.41Z"/><path class="cls-2" d="M75.23,268.23s.07,0,.1,.03l39.35,22.72c.1,.06,.13,.18,.07,.28-.06,.1-.18,.13-.28,.08l-39.35-22.72c-.1-.06-.13-.18-.07-.28,.04-.07,.11-.1,.18-.1Z"/><path class="cls-2" d="M75.23,268.23c.07,0,.14,.04,.18,.1,.06,.1,.02,.22-.07,.28l-39.36,22.72c-.1,.06-.22,.02-.28-.08-.06-.1-.02-.22,.08-.28l39.36-22.72s.07-.03,.1-.03Z"/><path class="cls-2" d="M114.78,325.7v-34.55c0-.11-.09-.2-.2-.2s-.2,.09-.2,.2v34.55h.41Z"/></g><g><g><g><path class="cls-2" d="M0,13.42l7.42,4.28c.1,.06,.22,.02,.28-.07,.06-.1,.02-.22-.07-.28L0,12.95v.47Z"/><path class="cls-2" d="M6.75,18.86c.74,.43,1.68,.17,2.1-.56,.42-.74,.17-1.68-.56-2.1-.74-.42-1.68-.17-2.1,.56-.43,.74-.17,1.68,.56,2.1Z"/></g><g><path class="cls-2" d="M31.7,3.36c.07,0,.14,.04,.18,.1,.06,.1,.02,.22-.07,.28L7.63,17.71c-.1,.06-.22,.02-.28-.08-.06-.1-.02-.22,.08-.28L31.6,3.39s.07-.03,.1-.03Z"/><path class="cls-2" d="M8.29,18.86c-.74,.43-1.68,.17-2.1-.56-.43-.74-.17-1.68,.56-2.1s1.68-.17,2.1,.56c.43,.74,.17,1.68-.56,2.1Z"/><path class="cls-2" d="M32.47,4.9c.74-.43,.99-1.37,.56-2.1-.42-.74-1.37-.99-2.1-.56-.74,.42-.99,1.37-.56,2.1,.42,.74,1.37,.99,2.1,.56Z"/></g></g><g><path class="cls-2" d="M31.7,3.36s.07,0,.1,.03l24.18,13.96c.1,.06,.13,.18,.07,.28-.06,.1-.18,.13-.28,.08L31.6,3.75c-.1-.06-.13-.18-.08-.28,.04-.07,.11-.1,.18-.1Z"/><path class="cls-2" d="M30.93,4.9c-.74-.43-.99-1.37-.56-2.1,.43-.74,1.37-.99,2.1-.56,.74,.42,.99,1.37,.56,2.1-.42,.74-1.37,.99-2.1,.56Z"/><path class="cls-2" d="M55.11,18.86c.74,.43,1.68,.17,2.1-.56,.43-.74,.17-1.68-.56-2.1-.74-.42-1.68-.17-2.1,.56-.43,.74-.17,1.68,.56,2.1Z"/></g><g><g><path class="cls-2" d="M0,50.03l7.63-4.41c.1-.06,.13-.18,.08-.28-.04-.07-.11-.1-.18-.1-.03,0-.07,0-.1,.03L0,49.56v.47Z"/><path class="cls-2" d="M8.3,46.78c.74-.43,.99-1.37,.56-2.1-.43-.74-1.37-.99-2.1-.56-.74,.43-.99,1.37-.56,2.1,.43,.74,1.37,.99,2.1,.56Z"/></g><g><path class="cls-2" d="M7.53,17.32c.11,0,.2,.09,.2,.2v27.92c0,.11-.09,.2-.2,.2s-.2-.09-.2-.2V17.53c0-.11,.09-.2,.2-.2Z"/><path class="cls-2" d="M9.07,45.45c0,.85-.69,1.54-1.54,1.54s-1.54-.69-1.54-1.54c0-.85,.69-1.54,1.54-1.54s1.54,.69,1.54,1.54Z"/><path class="cls-2" d="M9.07,17.53c0-.85-.69-1.54-1.54-1.54s-1.54,.69-1.54,1.54,.69,1.54,1.54,1.54,1.54-.69,1.54-1.54Z"/></g><g><path class="cls-2" d="M0,13.42l7.42,4.29c.1,.06,.22,.02,.28-.07,.06-.1,.02-.22-.07-.28L0,12.95v.47Z"/><path class="cls-2" d="M8.29,16.2c.74,.42,.99,1.37,.56,2.1s-1.37,.99-2.1,.56c-.74-.43-.99-1.37-.56-2.1,.43-.74,1.37-.99,2.1-.56Z"/></g></g><g><g><path class="cls-2" d="M7.52,17.32c.11,0,.2,.09,.2,.2v27.92c0,.11-.09,.2-.2,.2s-.2-.09-.2-.2V17.53c0-.11,.09-.2,.2-.2Z"/><path class="cls-2" d="M9.06,45.45c0,.85-.69,1.54-1.54,1.54s-1.54-.69-1.54-1.54,.69-1.54,1.54-1.54,1.54,.69,1.54,1.54Z"/><path class="cls-2" d="M9.06,17.53c0-.85-.69-1.54-1.54-1.54s-1.54,.69-1.54,1.54,.69,1.54,1.54,1.54,1.54-.69,1.54-1.54Z"/></g><g><path class="cls-2" d="M7.52,45.24s.07,0,.1,.03l24.18,13.96c.1,.06,.13,.18,.07,.28-.06,.1-.18,.13-.28,.07L7.42,45.63c-.1-.06-.13-.18-.08-.28,.04-.07,.11-.1,.18-.1Z"/><path class="cls-2" d="M6.75,46.78c-.74-.43-.99-1.37-.56-2.1,.42-.74,1.37-.99,2.1-.56,.74,.43,.99,1.37,.56,2.1-.42,.74-1.37,.99-2.1,.56Z"/><path class="cls-2" d="M30.93,60.74c.74,.43,1.68,.17,2.1-.56,.43-.74,.17-1.68-.56-2.1-.74-.42-1.68-.17-2.1,.56-.43,.74-.17,1.68,.56,2.1Z"/></g><g><path class="cls-2" d="M55.88,45.24c.07,0,.14,.04,.18,.1,.06,.1,.02,.22-.08,.28l-24.18,13.96c-.1,.06-.22,.02-.28-.07-.06-.1-.02-.22,.07-.28l24.18-13.96s.07-.03,.1-.03Z"/><path class="cls-2" d="M32.47,60.74c-.74,.43-1.68,.17-2.1-.56-.43-.74-.17-1.68,.56-2.1,.74-.42,1.68-.17,2.1,.56,.43,.74,.17,1.68-.56,2.1Z"/><path class="cls-2" d="M56.65,46.78c.74-.43,.99-1.37,.56-2.1-.43-.74-1.37-.99-2.1-.56-.74,.43-.99,1.37-.56,2.1,.42,.74,1.37,.99,2.1,.56Z"/></g><g><path class="cls-2" d="M55.88,17.32c.11,0,.2,.09,.2,.2v27.92c0,.11-.09,.2-.2,.2s-.2-.09-.2-.2V17.53c0-.11,.09-.2,.2-.2Z"/><path class="cls-2" d="M57.42,45.45c0,.85-.69,1.54-1.54,1.54s-1.54-.69-1.54-1.54,.69-1.54,1.54-1.54,1.54,.69,1.54,1.54Z"/><path class="cls-2" d="M57.42,17.53c0-.85-.69-1.54-1.54-1.54s-1.54,.69-1.54,1.54,.69,1.54,1.54,1.54,1.54-.69,1.54-1.54Z"/></g><g><path class="cls-2" d="M31.7,3.36s.07,0,.1,.03l24.17,13.96c.1,.06,.13,.18,.07,.28-.06,.1-.18,.13-.28,.08L31.6,3.75c-.1-.06-.13-.18-.07-.28,.04-.07,.11-.1,.18-.1Z"/><path class="cls-2" d="M56.65,16.2c.74,.42,.99,1.37,.56,2.1-.43,.74-1.37,.99-2.1,.56-.74-.43-.99-1.37-.56-2.1,.42-.74,1.37-.99,2.1-.56Z"/><path class="cls-2" d="M32.47,2.24c-.74-.43-1.68-.17-2.1,.56-.43,.74-.17,1.68,.56,2.1s1.68,.17,2.1-.56c.43-.74,.17-1.68-.56-2.1Z"/></g><g><path class="cls-2" d="M31.7,3.36c.07,0,.14,.04,.18,.1,.06,.1,.02,.22-.07,.28L7.63,17.71c-.1,.06-.22,.02-.28-.08-.06-.1-.02-.22,.08-.28L31.6,3.39s.07-.03,.1-.03Z"/><path class="cls-2" d="M30.93,2.24c.74-.43,1.68-.17,2.1,.56,.43,.74,.17,1.68-.56,2.1-.74,.43-1.68,.17-2.1-.56-.43-.74-.17-1.68,.56-2.1Z"/><path class="cls-2" d="M6.75,16.2c-.74,.43-.99,1.37-.56,2.1,.42,.74,1.37,.99,2.1,.56,.74-.42,.99-1.37,.56-2.1-.42-.74-1.37-.99-2.1-.56Z"/></g></g><g><g><path class="cls-2" d="M55.88,17.32c.11,0,.2,.09,.2,.2v27.92c0,.11-.09,.2-.2,.2s-.2-.09-.2-.2V17.53c0-.11,.09-.2,.2-.2Z"/><path class="cls-2" d="M57.42,45.45c0,.85-.69,1.54-1.54,1.54s-1.54-.69-1.54-1.54,.69-1.54,1.54-1.54,1.54,.69,1.54,1.54Z"/><path class="cls-2" d="M57.42,17.53c0-.85-.69-1.54-1.54-1.54s-1.54,.69-1.54,1.54,.69,1.54,1.54,1.54,1.54-.69,1.54-1.54Z"/></g><g><path class="cls-2" d="M55.88,45.24s.07,0,.1,.03l24.18,13.96c.1,.06,.13,.18,.07,.28-.06,.1-.18,.13-.28,.07l-24.18-13.96c-.1-.06-.13-.18-.07-.28,.04-.07,.11-.1,.18-.1Z"/><path class="cls-2" d="M55.11,46.78c-.74-.43-.99-1.37-.56-2.1s1.37-.99,2.1-.56c.74,.43,.99,1.37,.56,2.1-.43,.74-1.37,.99-2.1,.56Z"/><path class="cls-2" d="M79.29,60.74c.74,.43,1.68,.17,2.1-.56,.43-.74,.17-1.68-.56-2.1-.74-.42-1.68-.17-2.1,.56-.42,.74-.17,1.68,.56,2.1Z"/></g></g><g><g><path class="cls-2" d="M31.7,59.2c.11,0,.2,.09,.2,.2v27.92c0,.11-.09,.2-.2,.2s-.2-.09-.2-.2v-27.92c0-.11,.09-.2,.2-.2Z"/><path class="cls-2" d="M33.24,87.33c0,.85-.69,1.54-1.54,1.54s-1.54-.69-1.54-1.54,.69-1.54,1.54-1.54,1.54,.69,1.54,1.54Z"/><path class="cls-2" d="M33.24,59.41c0-.85-.69-1.54-1.54-1.54s-1.54,.69-1.54,1.54,.69,1.54,1.54,1.54,1.54-.69,1.54-1.54Z"/></g><g><path class="cls-2" d="M7.52,45.24s.07,0,.1,.03l24.17,13.96c.1,.06,.13,.18,.08,.28-.06,.1-.18,.13-.28,.07L7.42,45.63c-.1-.06-.13-.18-.08-.28,.04-.07,.11-.1,.18-.1Z"/><path class="cls-2" d="M32.47,58.08c.74,.43,.99,1.37,.56,2.1-.42,.74-1.37,.99-2.1,.56-.74-.43-.99-1.37-.56-2.1,.43-.74,1.37-.99,2.1-.56Z"/><path class="cls-2" d="M8.29,44.12c-.74-.43-1.68-.17-2.1,.56-.43,.74-.17,1.68,.56,2.1,.74,.43,1.68,.17,2.1-.56,.43-.74,.17-1.68-.56-2.1Z"/></g><g><path class="cls-2" d="M0,50.03l7.63-4.4c.1-.06,.13-.18,.07-.28-.04-.07-.11-.1-.18-.1-.03,0-.07,0-.1,.03L0,49.56v.47Z"/><path class="cls-2" d="M6.75,44.12c.74-.42,1.68-.17,2.1,.56,.42,.74,.17,1.68-.56,2.1-.74,.43-1.68,.17-2.1-.56-.43-.74-.17-1.68,.56-2.1Z"/></g></g><g><g><path class="cls-2" d="M31.7,59.2c.11,0,.2,.09,.2,.2v27.92c0,.11-.09,.2-.2,.2s-.2-.09-.2-.2v-27.92c0-.11,.09-.2,.2-.2Z"/><path class="cls-2" d="M33.24,87.33c0,.85-.69,1.54-1.54,1.54s-1.54-.69-1.54-1.54,.69-1.54,1.54-1.54,1.54,.69,1.54,1.54Z"/><path class="cls-2" d="M33.24,59.41c0-.85-.69-1.54-1.54-1.54s-1.54,.69-1.54,1.54,.69,1.54,1.54,1.54,1.54-.69,1.54-1.54Z"/></g><g><path class="cls-2" d="M31.7,87.12s.07,0,.1,.03l24.18,13.96c.1,.06,.13,.18,.07,.28-.06,.1-.18,.13-.28,.07l-24.18-13.96c-.1-.06-.13-.18-.08-.28,.04-.07,.11-.1,.18-.1Z"/><path class="cls-2" d="M30.93,88.66c-.74-.42-.99-1.37-.56-2.1,.43-.74,1.37-.99,2.1-.56s.99,1.37,.56,2.1-1.37,.99-2.1,.56Z"/><path class="cls-2" d="M55.11,102.62c.74,.43,1.68,.17,2.1-.56,.43-.74,.17-1.68-.56-2.1-.74-.42-1.68-.17-2.1,.56s-.17,1.68,.56,2.1Z"/></g><g><path class="cls-2" d="M80.06,87.12c.07,0,.14,.04,.18,.1,.06,.1,.02,.22-.07,.28l-24.18,13.96c-.1,.06-.22,.02-.28-.07-.06-.1-.02-.22,.07-.28l24.18-13.96s.07-.03,.1-.03Z"/><path class="cls-2" d="M56.65,102.62c-.74,.43-1.68,.17-2.1-.56s-.17-1.68,.56-2.1c.74-.42,1.68-.17,2.1,.56,.43,.74,.17,1.68-.56,2.1Z"/><path class="cls-2" d="M80.83,88.66c.74-.42,.99-1.37,.56-2.1-.42-.74-1.37-.99-2.1-.56-.74,.43-.99,1.37-.56,2.1,.43,.74,1.37,.99,2.1,.56Z"/></g><g><path class="cls-2" d="M80.06,59.2c.11,0,.2,.09,.2,.2v27.92c0,.11-.09,.2-.2,.2s-.2-.09-.2-.2v-27.92c0-.11,.09-.2,.2-.2Z"/><path class="cls-2" d="M81.6,87.33c0,.85-.69,1.54-1.54,1.54s-1.54-.69-1.54-1.54,.69-1.54,1.54-1.54,1.54,.69,1.54,1.54Z"/><circle class="cls-2" cx="80.06" cy="59.41" r="1.54"/></g><g><path class="cls-2" d="M55.88,45.24s.07,0,.1,.03l24.17,13.96c.1,.06,.13,.18,.07,.28-.06,.1-.18,.13-.28,.07l-24.17-13.96c-.1-.06-.13-.18-.07-.28,.04-.07,.11-.1,.18-.1Z"/><path class="cls-2" d="M80.82,58.08c.74,.43,.99,1.37,.56,2.1-.42,.74-1.37,.99-2.1,.56-.74-.43-.99-1.37-.56-2.1,.43-.74,1.37-.99,2.1-.56Z"/><path class="cls-2" d="M56.65,44.12c-.74-.43-1.68-.17-2.1,.56-.43,.74-.17,1.68,.56,2.1,.74,.43,1.68,.17,2.1-.56,.43-.74,.17-1.68-.56-2.1Z"/></g><g><path class="cls-2" d="M55.88,45.24c.07,0,.14,.04,.18,.1,.06,.1,.02,.22-.07,.28l-24.18,13.96c-.1,.06-.22,.02-.28-.07-.06-.1-.02-.22,.08-.28l24.18-13.96s.07-.03,.1-.03Z"/><path class="cls-2" d="M55.11,44.12c.74-.42,1.68-.17,2.1,.56,.43,.74,.17,1.68-.56,2.1-.74,.43-1.68,.17-2.1-.56-.43-.74-.17-1.68,.56-2.1Z"/><path class="cls-2" d="M30.93,58.08c-.74,.42-.99,1.37-.56,2.1,.43,.74,1.37,.99,2.1,.56,.74-.42,.99-1.37,.56-2.1s-1.37-.99-2.1-.56Z"/></g></g><g><g><path class="cls-2" d="M80.05,59.2c.11,0,.2,.09,.2,.2v27.92c0,.11-.09,.2-.2,.2s-.2-.09-.2-.2v-27.92c0-.11,.09-.2,.2-.2Z"/><path class="cls-2" d="M81.59,87.33c0,.85-.69,1.54-1.54,1.54s-1.54-.69-1.54-1.54,.69-1.54,1.54-1.54,1.54,.69,1.54,1.54Z"/><path class="cls-2" d="M81.59,59.41c0-.85-.69-1.54-1.54-1.54s-1.54,.69-1.54,1.54,.69,1.54,1.54,1.54,1.54-.69,1.54-1.54Z"/></g><g><path class="cls-2" d="M80.05,87.12s.07,0,.1,.03l24.18,13.96c.1,.06,.13,.18,.07,.28-.06,.1-.18,.13-.28,.07l-24.18-13.96c-.1-.06-.13-.18-.08-.28,.04-.07,.11-.1,.18-.1Z"/><path class="cls-2" d="M79.28,88.66c-.74-.42-.99-1.37-.56-2.1,.42-.74,1.37-.99,2.1-.56,.74,.43,.99,1.37,.56,2.1-.43,.74-1.37,.99-2.1,.56Z"/><path class="cls-2" d="M103.46,102.62c.74,.43,1.68,.17,2.1-.56s.17-1.68-.56-2.1c-.74-.42-1.68-.17-2.1,.56-.43,.74-.17,1.68,.56,2.1Z"/></g></g><g><g><path class="cls-2" d="M7.52,129s.07,0,.1,.03l24.18,13.96c.1,.06,.13,.18,.07,.28-.06,.1-.18,.13-.28,.07l-24.18-13.96c-.1-.06-.13-.18-.08-.28,.04-.07,.11-.1,.18-.1Z"/><path class="cls-2" d="M6.75,130.54c-.74-.42-.99-1.37-.56-2.1,.42-.74,1.37-.99,2.1-.56,.74,.43,.99,1.37,.56,2.1-.42,.74-1.37,.99-2.1,.56Z"/><path class="cls-2" d="M30.93,144.5c.74,.43,1.68,.17,2.1-.56s.17-1.68-.56-2.1c-.74-.42-1.68-.17-2.1,.56-.43,.74-.17,1.68,.56,2.1Z"/></g><g><path class="cls-2" d="M55.88,129c.07,0,.14,.04,.18,.1,.06,.1,.02,.22-.08,.28l-24.18,13.96c-.1,.06-.22,.02-.28-.07-.06-.1-.02-.22,.07-.28l24.18-13.96s.07-.03,.1-.03Z"/><path class="cls-2" d="M32.47,144.5c-.74,.43-1.68,.17-2.1-.56-.43-.74-.17-1.68,.56-2.1,.74-.42,1.68-.17,2.1,.56,.43,.74,.17,1.68-.56,2.1Z"/><path class="cls-2" d="M56.65,130.54c.74-.42,.99-1.37,.56-2.1-.43-.74-1.37-.99-2.1-.56-.74,.43-.99,1.37-.56,2.1,.42,.74,1.37,.99,2.1,.56Z"/></g><g><path class="cls-2" d="M55.88,101.08c.11,0,.2,.09,.2,.2v27.92c0,.11-.09,.2-.2,.2s-.2-.09-.2-.2v-27.92c0-.11,.09-.2,.2-.2Z"/><path class="cls-2" d="M57.42,129.21c0,.85-.69,1.54-1.54,1.54-.85,0-1.54-.69-1.54-1.54s.69-1.54,1.54-1.54c.85,0,1.54,.69,1.54,1.54Z"/><path class="cls-2" d="M57.42,101.29c0-.85-.69-1.54-1.54-1.54s-1.54,.69-1.54,1.54,.69,1.54,1.54,1.54,1.54-.69,1.54-1.54Z"/></g><g><path class="cls-2" d="M31.7,87.12s.07,0,.1,.03l24.17,13.96c.1,.06,.13,.18,.07,.28-.06,.1-.18,.13-.28,.07l-24.17-13.96c-.1-.06-.13-.18-.07-.28,.04-.07,.11-.1,.18-.1Z"/><path class="cls-2" d="M56.65,99.96c.74,.43,.99,1.37,.56,2.1-.43,.74-1.37,.99-2.1,.56-.74-.43-.99-1.37-.56-2.1,.42-.74,1.37-.99,2.1-.56Z"/><path class="cls-2" d="M32.47,86c-.74-.42-1.68-.17-2.1,.56-.43,.74-.17,1.68,.56,2.1,.74,.43,1.68,.17,2.1-.56,.43-.74,.17-1.68-.56-2.1Z"/></g></g><g><g><path class="cls-2" d="M55.88,101.08c.11,0,.2,.09,.2,.2v27.92c0,.11-.09,.2-.2,.2s-.2-.09-.2-.2v-27.92c0-.11,.09-.2,.2-.2Z"/><path class="cls-2" d="M57.42,129.21c0,.85-.69,1.54-1.54,1.54s-1.54-.69-1.54-1.54,.69-1.54,1.54-1.54,1.54,.69,1.54,1.54Z"/><path class="cls-2" d="M57.42,101.29c0-.85-.69-1.54-1.54-1.54s-1.54,.69-1.54,1.54,.69,1.54,1.54,1.54,1.54-.69,1.54-1.54Z"/></g><g><path class="cls-2" d="M55.88,129s.07,0,.1,.03l24.18,13.96c.1,.06,.13,.18,.07,.28-.06,.1-.18,.13-.28,.07l-24.18-13.96c-.1-.06-.13-.18-.07-.28,.04-.07,.11-.1,.18-.1Z"/><path class="cls-2" d="M55.11,130.54c-.74-.42-.99-1.37-.56-2.1,.43-.74,1.37-.99,2.1-.56,.74,.43,.99,1.37,.56,2.1-.43,.74-1.37,.99-2.1,.56Z"/><path class="cls-2" d="M79.29,144.5c.74,.43,1.68,.17,2.1-.56,.43-.74,.17-1.68-.56-2.1-.74-.42-1.68-.17-2.1,.56-.42,.74-.17,1.68,.56,2.1Z"/></g><g><path class="cls-2" d="M104.24,129c.07,0,.14,.04,.18,.1,.06,.1,.02,.22-.08,.28l-24.18,13.96c-.1,.06-.22,.02-.28-.07-.06-.1-.02-.22,.07-.28l24.18-13.96s.07-.03,.1-.03Z"/><path class="cls-2" d="M80.83,144.5c-.74,.43-1.68,.17-2.1-.56-.42-.74-.17-1.68,.56-2.1,.74-.42,1.68-.17,2.1,.56,.43,.74,.17,1.68-.56,2.1Z"/><path class="cls-2" d="M105.01,130.54c.74-.42,.99-1.37,.56-2.1-.43-.74-1.37-.99-2.1-.56-.74,.43-.99,1.37-.56,2.1,.42,.74,1.37,.99,2.1,.56Z"/></g><g><path class="cls-2" d="M104.24,101.08c.11,0,.2,.09,.2,.2v27.92c0,.11-.09,.2-.2,.2s-.2-.09-.2-.2v-27.92c0-.11,.09-.2,.2-.2Z"/><path class="cls-2" d="M105.78,129.21c0,.85-.69,1.54-1.54,1.54-.85,0-1.54-.69-1.54-1.54s.69-1.54,1.54-1.54c.85,0,1.54,.69,1.54,1.54Z"/><path class="cls-2" d="M105.77,101.29c0-.85-.69-1.54-1.54-1.54s-1.54,.69-1.54,1.54,.69,1.54,1.54,1.54,1.54-.69,1.54-1.54Z"/></g><g><path class="cls-2" d="M80.06,87.12s.07,0,.1,.03l24.17,13.96c.1,.06,.13,.18,.07,.28-.06,.1-.18,.13-.28,.07l-24.17-13.96c-.1-.06-.13-.18-.07-.28,.04-.07,.11-.1,.18-.1Z"/><path class="cls-2" d="M105,99.96c.74,.43,.99,1.37,.56,2.1-.42,.74-1.37,.99-2.1,.56-.74-.43-.99-1.37-.56-2.1,.43-.74,1.37-.99,2.1-.56Z"/><path class="cls-2" d="M80.83,86c-.74-.42-1.68-.17-2.1,.56-.43,.74-.17,1.68,.56,2.1,.74,.43,1.68,.17,2.1-.56,.43-.74,.17-1.68-.56-2.1Z"/></g><g><path class="cls-2" d="M80.06,87.12c.07,0,.14,.04,.18,.1,.06,.1,.02,.22-.07,.28l-24.18,13.96c-.1,.06-.22,.02-.28-.07-.06-.1-.02-.22,.07-.28l24.18-13.96s.07-.03,.1-.03Z"/><path class="cls-2" d="M79.29,86c.74-.42,1.68-.17,2.1,.56,.43,.74,.17,1.68-.56,2.1-.74,.43-1.68,.17-2.1-.56-.42-.74-.17-1.68,.56-2.1Z"/><path class="cls-2" d="M55.11,99.95c-.74,.43-.99,1.37-.56,2.1s1.37,.99,2.1,.56c.74-.42,.99-1.37,.56-2.1-.43-.74-1.37-.99-2.1-.56Z"/></g></g><g><path class="cls-2" d="M104.23,101.08c.11,0,.2,.09,.2,.2v27.92c0,.11-.09,.2-.2,.2s-.2-.09-.2-.2v-27.92c0-.11,.09-.2,.2-.2Z"/><path class="cls-2" d="M105.77,129.21c0,.85-.69,1.54-1.54,1.54s-1.54-.69-1.54-1.54,.69-1.54,1.54-1.54,1.54,.69,1.54,1.54Z"/><path class="cls-2" d="M105.77,101.29c0-.85-.69-1.54-1.54-1.54s-1.54,.69-1.54,1.54,.69,1.54,1.54,1.54,1.54-.69,1.54-1.54Z"/></g><g><g><path class="cls-2" d="M31.7,170.88c.07,0,.14,.04,.18,.1,.06,.1,.02,.22-.07,.28l-24.18,13.96c-.1,.06-.22,.02-.28-.07-.06-.1-.02-.22,.08-.28l24.18-13.96s.07-.03,.1-.03Z"/><path class="cls-2" d="M8.29,186.38c-.74,.42-1.68,.17-2.1-.56-.43-.74-.17-1.68,.56-2.1s1.68-.17,2.1,.56c.43,.74,.17,1.68-.56,2.1Z"/><path class="cls-2" d="M32.47,172.42c.74-.42,.99-1.37,.56-2.1s-1.37-.99-2.1-.56c-.74,.43-.99,1.37-.56,2.1,.42,.74,1.37,.99,2.1,.56Z"/></g><g><path class="cls-2" d="M31.7,142.96c.11,0,.2,.09,.2,.2v27.92c0,.11-.09,.2-.2,.2s-.2-.09-.2-.2v-27.92c0-.11,.09-.2,.2-.2Z"/><path class="cls-2" d="M33.24,171.09c0,.85-.69,1.54-1.54,1.54s-1.54-.69-1.54-1.54,.69-1.54,1.54-1.54,1.54,.69,1.54,1.54Z"/><path class="cls-2" d="M33.24,143.17c0-.85-.69-1.54-1.54-1.54s-1.54,.69-1.54,1.54,.69,1.54,1.54,1.54,1.54-.69,1.54-1.54Z"/></g><g><path class="cls-2" d="M7.52,129s.07,0,.1,.03l24.17,13.96c.1,.06,.13,.18,.08,.28-.06,.1-.18,.13-.28,.07l-24.17-13.96c-.1-.06-.13-.18-.08-.28,.04-.07,.11-.1,.18-.1Z"/><path class="cls-2" d="M32.47,141.83c.74,.43,.99,1.37,.56,2.1-.42,.74-1.37,.99-2.1,.56-.74-.43-.99-1.37-.56-2.1,.43-.74,1.37-.99,2.1-.56Z"/><path class="cls-2" d="M8.29,127.87c-.74-.43-1.68-.17-2.1,.56-.43,.74-.17,1.68,.56,2.1,.74,.43,1.68,.17,2.1-.56s.17-1.68-.56-2.1Z"/></g></g><g><g><path class="cls-2" d="M31.7,142.96c.11,0,.2,.09,.2,.2v27.92c0,.11-.09,.2-.2,.2s-.2-.09-.2-.2v-27.92c0-.11,.09-.2,.2-.2Z"/><path class="cls-2" d="M33.24,171.09c0,.85-.69,1.54-1.54,1.54s-1.54-.69-1.54-1.54,.69-1.54,1.54-1.54,1.54,.69,1.54,1.54Z"/><path class="cls-2" d="M33.24,143.17c0-.85-.69-1.54-1.54-1.54s-1.54,.69-1.54,1.54,.69,1.54,1.54,1.54,1.54-.69,1.54-1.54Z"/></g><g><path class="cls-2" d="M31.7,170.88s.07,0,.1,.03l24.18,13.96c.1,.06,.13,.18,.07,.28-.06,.1-.18,.13-.28,.07l-24.18-13.96c-.1-.06-.13-.18-.08-.28,.04-.07,.11-.1,.18-.1Z"/><path class="cls-2" d="M30.93,172.42c-.74-.42-.99-1.37-.56-2.1,.43-.74,1.37-.99,2.1-.56s.99,1.37,.56,2.1c-.42,.74-1.37,.99-2.1,.56Z"/><path class="cls-2" d="M55.11,186.38c.74,.42,1.68,.17,2.1-.56,.43-.74,.17-1.68-.56-2.1-.74-.43-1.68-.17-2.1,.56s-.17,1.68,.56,2.1Z"/></g><g><path class="cls-2" d="M80.06,170.88c.07,0,.14,.04,.18,.1,.06,.1,.02,.22-.07,.28l-24.18,13.96c-.1,.06-.22,.02-.28-.07-.06-.1-.02-.22,.07-.28l24.18-13.96s.07-.03,.1-.03Z"/><path class="cls-2" d="M56.65,186.38c-.74,.42-1.68,.17-2.1-.56-.43-.74-.17-1.68,.56-2.1,.74-.43,1.68-.17,2.1,.56,.43,.74,.17,1.68-.56,2.1Z"/><path class="cls-2" d="M80.83,172.42c.74-.42,.99-1.37,.56-2.1-.42-.74-1.37-.99-2.1-.56-.74,.43-.99,1.37-.56,2.1,.43,.74,1.37,.99,2.1,.56Z"/></g><g><path class="cls-2" d="M80.06,142.96c.11,0,.2,.09,.2,.2v27.92c0,.11-.09,.2-.2,.2s-.2-.09-.2-.2v-27.92c0-.11,.09-.2,.2-.2Z"/><path class="cls-2" d="M81.6,171.09c0,.85-.69,1.54-1.54,1.54s-1.54-.69-1.54-1.54,.69-1.54,1.54-1.54,1.54,.69,1.54,1.54Z"/><path class="cls-2" d="M81.6,143.17c0-.85-.69-1.54-1.54-1.54s-1.54,.69-1.54,1.54,.69,1.54,1.54,1.54,1.54-.69,1.54-1.54Z"/></g><g><path class="cls-2" d="M55.88,129s.07,0,.1,.03l24.17,13.96c.1,.06,.13,.18,.07,.28-.06,.1-.18,.13-.28,.07l-24.17-13.96c-.1-.06-.13-.18-.07-.28,.04-.07,.11-.1,.18-.1Z"/><path class="cls-2" d="M80.82,141.83c.74,.43,.99,1.37,.56,2.1-.42,.74-1.37,.99-2.1,.56-.74-.43-.99-1.37-.56-2.1,.43-.74,1.37-.99,2.1-.56Z"/><path class="cls-2" d="M56.65,127.87c-.74-.43-1.68-.17-2.1,.56-.43,.74-.17,1.68,.56,2.1,.74,.43,1.68,.17,2.1-.56,.43-.74,.17-1.68-.56-2.1Z"/></g><g><path class="cls-2" d="M55.88,129c.07,0,.14,.04,.18,.1,.06,.1,.02,.22-.07,.28l-24.18,13.96c-.1,.06-.22,.02-.28-.07-.06-.1-.02-.22,.08-.28l24.18-13.96s.07-.03,.1-.03Z"/><path class="cls-2" d="M55.11,127.87c.74-.42,1.68-.17,2.1,.56,.43,.74,.17,1.68-.56,2.1-.74,.43-1.68,.17-2.1-.56s-.17-1.68,.56-2.1Z"/><path class="cls-2" d="M30.93,141.83c-.74,.43-.99,1.37-.56,2.1,.43,.74,1.37,.99,2.1,.56,.74-.42,.99-1.37,.56-2.1-.42-.74-1.37-.99-2.1-.56Z"/></g></g><g><g><path class="cls-2" d="M80.05,142.96c.11,0,.2,.09,.2,.2v27.92c0,.11-.09,.2-.2,.2s-.2-.09-.2-.2v-27.92c0-.11,.09-.2,.2-.2Z"/><path class="cls-2" d="M81.59,171.09c0,.85-.69,1.54-1.54,1.54s-1.54-.69-1.54-1.54,.69-1.54,1.54-1.54,1.54,.69,1.54,1.54Z"/><path class="cls-2" d="M81.59,143.17c0-.85-.69-1.54-1.54-1.54s-1.54,.69-1.54,1.54,.69,1.54,1.54,1.54,1.54-.69,1.54-1.54Z"/></g><g><path class="cls-2" d="M80.05,170.88s.07,0,.1,.03l24.18,13.96c.1,.06,.13,.18,.07,.28-.06,.1-.18,.13-.28,.07l-24.18-13.96c-.1-.06-.13-.18-.08-.28,.04-.07,.11-.1,.18-.1Z"/><path class="cls-2" d="M79.28,172.42c-.74-.42-.99-1.37-.56-2.1,.42-.74,1.37-.99,2.1-.56,.74,.43,.99,1.37,.56,2.1-.43,.74-1.37,.99-2.1,.56Z"/><path class="cls-2" d="M103.46,186.38c.74,.42,1.68,.17,2.1-.56,.43-.74,.17-1.68-.56-2.1-.74-.43-1.68-.17-2.1,.56-.43,.74-.17,1.68,.56,2.1Z"/></g><g><path class="cls-2" d="M104.23,129c.07,0,.14,.04,.18,.1,.06,.1,.02,.22-.07,.28l-24.18,13.96c-.1,.06-.22,.02-.28-.07-.06-.1-.02-.22,.08-.28l24.18-13.96s.07-.03,.1-.03Z"/><path class="cls-2" d="M103.46,127.87c.74-.42,1.68-.17,2.1,.56,.43,.74,.17,1.68-.56,2.1-.74,.43-1.68,.17-2.1-.56-.43-.74-.17-1.68,.56-2.1Z"/><path class="cls-2" d="M79.28,141.83c-.74,.43-.99,1.37-.56,2.1,.42,.74,1.37,.99,2.1,.56,.74-.42,.99-1.37,.56-2.1-.43-.74-1.37-.99-2.1-.56Z"/></g></g><g><g><path class="cls-2" d="M0,217.55l7.63-4.41c.1-.06,.13-.18,.08-.28-.04-.07-.11-.1-.18-.1-.03,0-.07,0-.1,.03l-7.43,4.29v.47Z"/><path class="cls-2" d="M8.3,214.3c.74-.43,.99-1.37,.56-2.1-.43-.74-1.37-.99-2.1-.56-.74,.42-.99,1.37-.56,2.1,.43,.74,1.37,.99,2.1,.56Z"/></g><g><path class="cls-2" d="M7.53,184.84c.11,0,.2,.09,.2,.2v27.92c0,.11-.09,.2-.2,.2s-.2-.09-.2-.2v-27.92c0-.11,.09-.2,.2-.2Z"/><path class="cls-2" d="M9.07,212.97c0,.85-.69,1.54-1.54,1.54s-1.54-.69-1.54-1.54c0-.85,.69-1.54,1.54-1.54s1.54,.69,1.54,1.54Z"/><path class="cls-2" d="M9.07,185.05c0-.85-.69-1.54-1.54-1.54-.85,0-1.54,.69-1.54,1.54s.69,1.54,1.54,1.54c.85,0,1.54-.69,1.54-1.54Z"/></g></g><g><g><path class="cls-2" d="M7.52,184.84c.11,0,.2,.09,.2,.2v27.92c0,.11-.09,.2-.2,.2s-.2-.09-.2-.2v-27.92c0-.11,.09-.2,.2-.2Z"/><path class="cls-2" d="M9.06,212.97c0,.85-.69,1.54-1.54,1.54s-1.54-.69-1.54-1.54,.69-1.54,1.54-1.54,1.54,.69,1.54,1.54Z"/><path class="cls-2" d="M9.06,185.05c0-.85-.69-1.54-1.54-1.54s-1.54,.69-1.54,1.54,.69,1.54,1.54,1.54,1.54-.69,1.54-1.54Z"/></g><g><path class="cls-2" d="M7.52,212.76s.07,0,.1,.03l24.18,13.96c.1,.06,.13,.18,.07,.28-.06,.1-.18,.13-.28,.07l-24.18-13.96c-.1-.06-.13-.18-.08-.28,.04-.07,.11-.1,.18-.1Z"/><path class="cls-2" d="M6.75,214.3c-.74-.43-.99-1.37-.56-2.1,.42-.74,1.37-.99,2.1-.56,.74,.42,.99,1.37,.56,2.1-.42,.74-1.37,.99-2.1,.56Z"/><path class="cls-2" d="M30.93,228.26c.74,.42,1.68,.17,2.1-.56,.43-.74,.17-1.68-.56-2.1-.74-.42-1.68-.17-2.1,.56-.43,.74-.17,1.68,.56,2.1Z"/></g><g><path class="cls-2" d="M55.88,212.76c.07,0,.14,.04,.18,.1,.06,.1,.02,.22-.08,.28l-24.18,13.96c-.1,.06-.22,.02-.28-.07-.06-.1-.02-.22,.07-.28l24.18-13.96s.07-.03,.1-.03Z"/><path class="cls-2" d="M32.47,228.26c-.74,.42-1.68,.17-2.1-.56-.43-.74-.17-1.68,.56-2.1,.74-.42,1.68-.17,2.1,.56,.43,.74,.17,1.68-.56,2.1Z"/><path class="cls-2" d="M56.65,214.3c.74-.43,.99-1.37,.56-2.1-.43-.74-1.37-.99-2.1-.56-.74,.42-.99,1.37-.56,2.1,.42,.74,1.37,.99,2.1,.56Z"/></g><g><path class="cls-2" d="M55.88,184.84c.11,0,.2,.09,.2,.2v27.92c0,.11-.09,.2-.2,.2s-.2-.09-.2-.2v-27.92c0-.11,.09-.2,.2-.2Z"/><path class="cls-2" d="M57.42,212.97c0,.85-.69,1.54-1.54,1.54s-1.54-.69-1.54-1.54,.69-1.54,1.54-1.54,1.54,.69,1.54,1.54Z"/><path class="cls-2" d="M57.42,185.05c0-.85-.69-1.54-1.54-1.54-.85,0-1.54,.69-1.54,1.54s.69,1.54,1.54,1.54c.85,0,1.54-.69,1.54-1.54Z"/></g><g><path class="cls-2" d="M31.7,170.88s.07,0,.1,.03l24.17,13.96c.1,.06,.13,.18,.07,.28-.06,.1-.18,.13-.28,.07l-24.17-13.96c-.1-.06-.13-.18-.07-.28,.04-.07,.11-.1,.18-.1Z"/><path class="cls-2" d="M56.65,183.71c.74,.42,.99,1.37,.56,2.1-.43,.74-1.37,.99-2.1,.56-.74-.43-.99-1.37-.56-2.1,.42-.74,1.37-.99,2.1-.56Z"/><path class="cls-2" d="M32.47,169.75c-.74-.43-1.68-.17-2.1,.56-.43,.74-.17,1.68,.56,2.1,.74,.43,1.68,.17,2.1-.56,.43-.74,.17-1.68-.56-2.1Z"/></g><g><path class="cls-2" d="M31.7,170.88c.07,0,.14,.04,.18,.1,.06,.1,.02,.22-.07,.28l-24.18,13.96c-.1,.06-.22,.02-.28-.07-.06-.1-.02-.22,.08-.28l24.18-13.96s.07-.03,.1-.03Z"/><path class="cls-2" d="M30.93,169.75c.74-.42,1.68-.17,2.1,.56s.17,1.68-.56,2.1c-.74,.42-1.68,.17-2.1-.56-.43-.74-.17-1.68,.56-2.1Z"/><path class="cls-2" d="M6.75,183.71c-.74,.42-.99,1.37-.56,2.1,.42,.74,1.37,.99,2.1,.56,.74-.43,.99-1.37,.56-2.1-.42-.74-1.37-.99-2.1-.56Z"/></g></g><g><g><path class="cls-2" d="M55.88,184.84c.11,0,.2,.09,.2,.2v27.92c0,.11-.09,.2-.2,.2s-.2-.09-.2-.2v-27.92c0-.11,.09-.2,.2-.2Z"/><path class="cls-2" d="M57.42,212.97c0,.85-.69,1.54-1.54,1.54s-1.54-.69-1.54-1.54,.69-1.54,1.54-1.54,1.54,.69,1.54,1.54Z"/><path class="cls-2" d="M57.42,185.05c0-.85-.69-1.54-1.54-1.54s-1.54,.69-1.54,1.54,.69,1.54,1.54,1.54,1.54-.69,1.54-1.54Z"/></g><g><path class="cls-2" d="M55.88,212.76s.07,0,.1,.03l24.18,13.96c.1,.06,.13,.18,.07,.28-.06,.1-.18,.13-.28,.07l-24.18-13.96c-.1-.06-.13-.18-.07-.28,.04-.07,.11-.1,.18-.1Z"/><path class="cls-2" d="M55.11,214.3c-.74-.43-.99-1.37-.56-2.1s1.37-.99,2.1-.56c.74,.42,.99,1.37,.56,2.1-.43,.74-1.37,.99-2.1,.56Z"/><path class="cls-2" d="M79.29,228.26c.74,.42,1.68,.17,2.1-.56,.43-.74,.17-1.68-.56-2.1-.74-.42-1.68-.17-2.1,.56-.42,.74-.17,1.68,.56,2.1Z"/></g><g><path class="cls-2" d="M104.24,212.76c.07,0,.14,.04,.18,.1,.06,.1,.02,.22-.08,.28l-24.18,13.96c-.1,.06-.22,.02-.28-.07-.06-.1-.02-.22,.07-.28l24.18-13.96s.07-.03,.1-.03Z"/><path class="cls-2" d="M80.83,228.26c-.74,.42-1.68,.17-2.1-.56-.42-.74-.17-1.68,.56-2.1,.74-.42,1.68-.17,2.1,.56,.43,.74,.17,1.68-.56,2.1Z"/><path class="cls-2" d="M105.01,214.3c.74-.43,.99-1.37,.56-2.1s-1.37-.99-2.1-.56c-.74,.42-.99,1.37-.56,2.1,.42,.74,1.37,.99,2.1,.56Z"/></g><g><path class="cls-2" d="M104.24,184.84c.11,0,.2,.09,.2,.2v27.92c0,.11-.09,.2-.2,.2s-.2-.09-.2-.2v-27.92c0-.11,.09-.2,.2-.2Z"/><path class="cls-2" d="M105.78,212.97c0,.85-.69,1.54-1.54,1.54s-1.54-.69-1.54-1.54,.69-1.54,1.54-1.54,1.54,.69,1.54,1.54Z"/><path class="cls-2" d="M105.77,185.05c0-.85-.69-1.54-1.54-1.54-.85,0-1.54,.69-1.54,1.54s.69,1.54,1.54,1.54c.85,0,1.54-.69,1.54-1.54Z"/></g><g><path class="cls-2" d="M80.06,170.88s.07,0,.1,.03l24.17,13.96c.1,.06,.13,.18,.07,.28-.06,.1-.18,.13-.28,.07l-24.17-13.96c-.1-.06-.13-.18-.07-.28,.04-.07,.11-.1,.18-.1Z"/><path class="cls-2" d="M105,183.71c.74,.42,.99,1.37,.56,2.1-.42,.74-1.37,.99-2.1,.56-.74-.43-.99-1.37-.56-2.1s1.37-.99,2.1-.56Z"/><path class="cls-2" d="M80.83,169.75c-.74-.43-1.68-.17-2.1,.56s-.17,1.68,.56,2.1c.74,.43,1.68,.17,2.1-.56,.43-.74,.17-1.68-.56-2.1Z"/></g><g><path class="cls-2" d="M80.06,170.88c.07,0,.14,.04,.18,.1,.06,.1,.02,.22-.07,.28l-24.18,13.96c-.1,.06-.22,.02-.28-.07-.06-.1-.02-.22,.07-.28l24.18-13.96s.07-.03,.1-.03Z"/><path class="cls-2" d="M79.29,169.75c.74-.42,1.68-.17,2.1,.56,.43,.74,.17,1.68-.56,2.1-.74,.42-1.68,.17-2.1-.56-.42-.74-.17-1.68,.56-2.1Z"/><path class="cls-2" d="M55.11,183.71c-.74,.42-.99,1.37-.56,2.1,.43,.74,1.37,.99,2.1,.56,.74-.43,.99-1.37,.56-2.1-.43-.74-1.37-.99-2.1-.56Z"/></g></g><g><g><path class="cls-2" d="M104.23,184.84c.11,0,.2,.09,.2,.2v27.92c0,.11-.09,.2-.2,.2s-.2-.09-.2-.2v-27.92c0-.11,.09-.2,.2-.2Z"/><path class="cls-2" d="M105.77,212.97c0,.85-.69,1.54-1.54,1.54s-1.54-.69-1.54-1.54,.69-1.54,1.54-1.54,1.54,.69,1.54,1.54Z"/><path class="cls-2" d="M105.77,185.05c0-.85-.69-1.54-1.54-1.54s-1.54,.69-1.54,1.54,.69,1.54,1.54,1.54,1.54-.69,1.54-1.54Z"/></g><g><path class="cls-2" d="M104.23,212.76s.07,0,.1,.03l24.18,13.96c.1,.06,.13,.18,.08,.28-.06,.1-.18,.13-.28,.07l-24.18-13.96c-.1-.06-.13-.18-.07-.28,.04-.07,.11-.1,.18-.1Z"/><path class="cls-2" d="M103.46,214.3c-.74-.43-.99-1.37-.56-2.1,.42-.74,1.37-.99,2.1-.56,.74,.42,.99,1.37,.56,2.1s-1.37,.99-2.1,.56Z"/><path class="cls-2" d="M127.64,228.26c.74,.42,1.68,.17,2.1-.56,.42-.74,.17-1.68-.56-2.1-.74-.42-1.68-.17-2.1,.56-.43,.74-.17,1.68,.56,2.1Z"/></g></g><g><g><path class="cls-2" d="M7.52,212.76s.07,0,.1,.03l24.17,13.96c.1,.06,.13,.18,.08,.28-.06,.1-.18,.13-.28,.07l-24.17-13.96c-.1-.06-.13-.18-.08-.28,.04-.07,.11-.1,.18-.1Z"/><path class="cls-2" d="M32.47,225.59c.74,.43,.99,1.37,.56,2.1-.42,.74-1.37,.99-2.1,.56-.74-.43-.99-1.37-.56-2.1,.43-.74,1.37-.99,2.1-.56Z"/><path class="cls-2" d="M8.29,211.63c-.74-.43-1.68-.17-2.1,.56-.43,.74-.17,1.68,.56,2.1,.74,.43,1.68,.17,2.1-.56,.43-.74,.17-1.68-.56-2.1Z"/></g><g><path class="cls-2" d="M0,217.55l7.63-4.4c.1-.06,.13-.18,.07-.28-.04-.07-.11-.1-.18-.1-.03,0-.07,0-.1,.03l-7.42,4.28v.47Z"/><path class="cls-2" d="M6.75,211.63c.74-.43,1.68-.17,2.1,.56,.42,.74,.17,1.68-.56,2.1-.74,.42-1.68,.17-2.1-.56-.43-.74-.17-1.68,.56-2.1Z"/></g></g><g><g><path class="cls-2" d="M80.06,254.64c.07,0,.14,.04,.18,.1,.06,.1,.02,.22-.07,.28l-24.18,13.96c-.1,.06-.22,.02-.28-.07-.06-.1-.02-.22,.07-.28l24.18-13.96s.07-.03,.1-.03Z"/><path class="cls-2" d="M56.65,270.14c-.74,.42-1.68,.17-2.1-.56s-.17-1.68,.56-2.1c.74-.43,1.68-.17,2.1,.56,.43,.74,.17,1.68-.56,2.1Z"/><path class="cls-2" d="M80.83,256.18c.74-.42,.99-1.37,.56-2.1-.42-.74-1.37-.99-2.1-.56-.74,.42-.99,1.37-.56,2.1,.43,.74,1.37,.99,2.1,.56Z"/></g><g><path class="cls-2" d="M80.06,226.72c.11,0,.2,.09,.2,.2v27.92c0,.11-.09,.2-.2,.2s-.2-.09-.2-.2v-27.92c0-.11,.09-.2,.2-.2Z"/><path class="cls-2" d="M81.6,254.85c0,.85-.69,1.54-1.54,1.54s-1.54-.69-1.54-1.54,.69-1.54,1.54-1.54,1.54,.69,1.54,1.54Z"/><circle class="cls-2" cx="80.06" cy="226.93" r="1.54"/></g><g><path class="cls-2" d="M55.88,212.76s.07,0,.1,.03l24.17,13.96c.1,.06,.13,.18,.07,.28-.06,.1-.18,.13-.28,.07l-24.17-13.96c-.1-.06-.13-.18-.07-.28,.04-.07,.11-.1,.18-.1Z"/><path class="cls-2" d="M80.82,225.59c.74,.43,.99,1.37,.56,2.1-.42,.74-1.37,.99-2.1,.56-.74-.43-.99-1.37-.56-2.1,.43-.74,1.37-.99,2.1-.56Z"/><path class="cls-2" d="M56.65,211.63c-.74-.43-1.68-.17-2.1,.56-.43,.74-.17,1.68,.56,2.1,.74,.43,1.68,.17,2.1-.56,.43-.74,.17-1.68-.56-2.1Z"/></g><g><path class="cls-2" d="M55.88,212.76c.07,0,.14,.04,.18,.1,.06,.1,.02,.22-.07,.28l-24.18,13.96c-.1,.06-.22,.02-.28-.07-.06-.1-.02-.22,.08-.28l24.18-13.96s.07-.03,.1-.03Z"/><path class="cls-2" d="M55.11,211.63c.74-.43,1.68-.17,2.1,.56,.43,.74,.17,1.68-.56,2.1-.74,.42-1.68,.17-2.1-.56s-.17-1.68,.56-2.1Z"/><path class="cls-2" d="M30.93,225.59c-.74,.42-.99,1.37-.56,2.1,.43,.74,1.37,.99,2.1,.56s.99-1.37,.56-2.1-1.37-.99-2.1-.56Z"/></g></g><g><g><path class="cls-2" d="M80.05,226.72c.11,0,.2,.09,.2,.2v27.92c0,.11-.09,.2-.2,.2s-.2-.09-.2-.2v-27.92c0-.11,.09-.2,.2-.2Z"/><path class="cls-2" d="M81.59,254.85c0,.85-.69,1.54-1.54,1.54s-1.54-.69-1.54-1.54,.69-1.54,1.54-1.54,1.54,.69,1.54,1.54Z"/><path class="cls-2" d="M81.59,226.93c0-.85-.69-1.54-1.54-1.54s-1.54,.69-1.54,1.54,.69,1.54,1.54,1.54,1.54-.69,1.54-1.54Z"/></g><g><path class="cls-2" d="M80.05,254.64s.07,0,.1,.03l24.18,13.96c.1,.06,.13,.18,.07,.28-.06,.1-.18,.13-.28,.07l-24.18-13.96c-.1-.06-.13-.18-.08-.28,.04-.07,.11-.1,.18-.1Z"/><path class="cls-2" d="M79.28,256.18c-.74-.42-.99-1.37-.56-2.1,.42-.74,1.37-.99,2.1-.56,.74,.42,.99,1.37,.56,2.1-.43,.74-1.37,.99-2.1,.56Z"/><path class="cls-2" d="M103.46,270.14c.74,.42,1.68,.17,2.1-.56s.17-1.68-.56-2.1c-.74-.43-1.68-.17-2.1,.56-.43,.74-.17,1.68,.56,2.1Z"/></g><g><path class="cls-2" d="M128.41,254.64c.07,0,.14,.04,.18,.1,.06,.1,.02,.22-.08,.28l-24.18,13.96c-.1,.06-.22,.02-.28-.07-.06-.1-.02-.22,.07-.28l24.18-13.96s.07-.03,.1-.03Z"/><path class="cls-2" d="M105,270.14c-.74,.42-1.68,.17-2.1-.56-.43-.74-.17-1.68,.56-2.1,.74-.43,1.68-.17,2.1,.56,.43,.74,.17,1.68-.56,2.1Z"/><path class="cls-2" d="M129.18,256.18c.74-.42,.99-1.37,.56-2.1-.43-.74-1.37-.99-2.1-.56-.74,.42-.99,1.37-.56,2.1,.42,.74,1.37,.99,2.1,.56Z"/></g><g><path class="cls-2" d="M128.41,226.72c.11,0,.2,.09,.2,.2v27.92c0,.11-.09,.2-.2,.2s-.2-.09-.2-.2v-27.92c0-.11,.09-.2,.2-.2Z"/><path class="cls-2" d="M129.95,254.85c0,.85-.69,1.54-1.54,1.54s-1.54-.69-1.54-1.54,.69-1.54,1.54-1.54,1.54,.69,1.54,1.54Z"/><path class="cls-2" d="M129.95,226.93c0-.85-.69-1.54-1.54-1.54s-1.54,.69-1.54,1.54,.69,1.54,1.54,1.54,1.54-.69,1.54-1.54Z"/></g><g><path class="cls-2" d="M104.23,212.76s.07,0,.1,.03l24.17,13.96c.1,.06,.13,.18,.07,.28-.06,.1-.18,.13-.28,.07l-24.17-13.96c-.1-.06-.13-.18-.07-.28,.04-.07,.11-.1,.18-.1Z"/><path class="cls-2" d="M129.17,225.59c.74,.43,.99,1.37,.56,2.1-.43,.74-1.37,.99-2.1,.56-.74-.43-.99-1.37-.56-2.1,.42-.74,1.37-.99,2.1-.56Z"/><path class="cls-2" d="M105,211.63c-.74-.43-1.68-.17-2.1,.56-.43,.74-.17,1.68,.56,2.1,.74,.43,1.68,.17,2.1-.56,.43-.74,.17-1.68-.56-2.1Z"/></g><g><path class="cls-2" d="M104.23,212.76c.07,0,.14,.04,.18,.1,.06,.1,.02,.22-.07,.28l-24.18,13.96c-.1,.06-.22,.02-.28-.07-.06-.1-.02-.22,.08-.28l24.18-13.96s.07-.03,.1-.03Z"/><path class="cls-2" d="M103.46,211.63c.74-.43,1.68-.17,2.1,.56s.17,1.68-.56,2.1c-.74,.42-1.68,.17-2.1-.56-.43-.74-.17-1.68,.56-2.1Z"/><path class="cls-2" d="M79.28,225.59c-.74,.42-.99,1.37-.56,2.1,.42,.74,1.37,.99,2.1,.56,.74-.42,.99-1.37,.56-2.1-.43-.74-1.37-.99-2.1-.56Z"/></g></g><g><g><path class="cls-2" d="M128.4,226.72c.11,0,.2,.09,.2,.2v27.92c0,.11-.09,.2-.2,.2s-.2-.09-.2-.2v-27.92c0-.11,.09-.2,.2-.2Z"/><path class="cls-2" d="M129.94,254.85c0,.85-.69,1.54-1.54,1.54s-1.54-.69-1.54-1.54,.69-1.54,1.54-1.54,1.54,.69,1.54,1.54Z"/><path class="cls-2" d="M129.94,226.93c0-.85-.69-1.54-1.54-1.54s-1.54,.69-1.54,1.54,.69,1.54,1.54,1.54,1.54-.69,1.54-1.54Z"/></g><g><path class="cls-2" d="M128.4,254.64s.07,0,.1,.03l24.18,13.96c.1,.06,.13,.18,.08,.28-.06,.1-.18,.13-.28,.07l-24.18-13.96c-.1-.06-.13-.18-.07-.28,.04-.07,.11-.1,.18-.1Z"/><path class="cls-2" d="M127.64,256.18c-.74-.42-.99-1.37-.56-2.1,.43-.74,1.37-.99,2.1-.56,.74,.42,.99,1.37,.56,2.1-.42,.74-1.37,.99-2.1,.56Z"/><path class="cls-2" d="M151.81,270.14c.74,.42,1.68,.17,2.1-.56,.43-.74,.17-1.68-.56-2.1-.74-.43-1.68-.17-2.1,.56-.42,.74-.17,1.68,.56,2.1Z"/></g><g><path class="cls-2" d="M176.76,254.64c.07,0,.14,.04,.18,.1,.06,.1,.02,.22-.07,.28l-24.18,13.96c-.1,.06-.22,.02-.28-.07-.06-.1-.02-.22,.07-.28l24.18-13.96s.07-.03,.1-.03Z"/><path class="cls-2" d="M153.35,270.14c-.74,.42-1.68,.17-2.1-.56-.42-.74-.17-1.68,.56-2.1,.74-.43,1.68-.17,2.1,.56,.43,.74,.17,1.68-.56,2.1Z"/><path class="cls-2" d="M177.53,256.18c.74-.42,.99-1.37,.56-2.1-.43-.74-1.37-.99-2.1-.56-.74,.42-.99,1.37-.56,2.1,.43,.74,1.37,.99,2.1,.56Z"/></g><g><path class="cls-2" d="M176.76,226.72c.11,0,.2,.09,.2,.2v27.92c0,.11-.09,.2-.2,.2s-.2-.09-.2-.2v-27.92c0-.11,.09-.2,.2-.2Z"/><path class="cls-2" d="M178.3,254.85c0,.85-.69,1.54-1.54,1.54s-1.54-.69-1.54-1.54,.69-1.54,1.54-1.54,1.54,.69,1.54,1.54Z"/><path class="cls-2" d="M178.3,226.93c0-.85-.69-1.54-1.54-1.54s-1.54,.69-1.54,1.54,.69,1.54,1.54,1.54,1.54-.69,1.54-1.54Z"/></g></g><g><g><path class="cls-2" d="M176.76,226.72c.11,0,.2,.09,.2,.2v27.92c0,.11-.09,.2-.2,.2s-.2-.09-.2-.2v-27.92c0-.11,.09-.2,.2-.2Z"/><path class="cls-2" d="M178.3,254.85c0,.85-.69,1.54-1.54,1.54s-1.54-.69-1.54-1.54,.69-1.54,1.54-1.54,1.54,.69,1.54,1.54Z"/><path class="cls-2" d="M178.3,226.93c0-.85-.69-1.54-1.54-1.54s-1.54,.69-1.54,1.54,.69,1.54,1.54,1.54,1.54-.69,1.54-1.54Z"/></g><g><path class="cls-2" d="M176.76,254.64s.07,0,.1,.03l24.18,13.96c.1,.06,.13,.18,.07,.28-.06,.1-.18,.13-.28,.07l-24.18-13.96c-.1-.06-.13-.18-.07-.28,.04-.07,.11-.1,.18-.1Z"/><path class="cls-2" d="M175.99,256.18c-.74-.42-.99-1.37-.56-2.1,.42-.74,1.37-.99,2.1-.56,.74,.42,.99,1.37,.56,2.1-.43,.74-1.37,.99-2.1,.56Z"/><path class="cls-2" d="M200.17,270.14c.74,.42,1.68,.17,2.1-.56,.42-.74,.17-1.68-.56-2.1-.74-.43-1.68-.17-2.1,.56-.43,.74-.17,1.68,.56,2.1Z"/></g></g><g><g><path class="cls-2" d="M104.24,268.6c.11,0,.2,.09,.2,.2v27.92c0,.11-.09,.2-.2,.2s-.2-.09-.2-.2v-27.92c0-.11,.09-.2,.2-.2Z"/><path class="cls-2" d="M105.78,296.72c0,.85-.69,1.54-1.54,1.54s-1.54-.69-1.54-1.54,.69-1.54,1.54-1.54,1.54,.69,1.54,1.54Z"/><path class="cls-2" d="M105.77,268.81c0-.85-.69-1.54-1.54-1.54s-1.54,.69-1.54,1.54,.69,1.54,1.54,1.54,1.54-.69,1.54-1.54Z"/></g><g><path class="cls-2" d="M80.06,254.64s.07,0,.1,.03l24.17,13.96c.1,.06,.13,.18,.07,.28-.06,.1-.18,.13-.28,.07l-24.17-13.96c-.1-.06-.13-.18-.07-.28,.04-.07,.11-.1,.18-.1Z"/><path class="cls-2" d="M105,267.47c.74,.43,.99,1.37,.56,2.1-.42,.74-1.37,.99-2.1,.56-.74-.42-.99-1.37-.56-2.1,.43-.74,1.37-.99,2.1-.56Z"/><path class="cls-2" d="M80.83,253.51c-.74-.42-1.68-.17-2.1,.56-.43,.74-.17,1.68,.56,2.1,.74,.42,1.68,.17,2.1-.56,.43-.74,.17-1.68-.56-2.1Z"/></g><g><path class="cls-2" d="M80.06,254.64c.07,0,.14,.04,.18,.1,.06,.1,.02,.22-.07,.28l-24.18,13.96c-.1,.06-.22,.02-.28-.07-.06-.1-.02-.22,.07-.28l24.18-13.96s.07-.03,.1-.03Z"/><path class="cls-2" d="M79.29,253.51c.74-.42,1.68-.17,2.1,.56,.43,.74,.17,1.68-.56,2.1-.74,.42-1.68,.17-2.1-.56-.42-.74-.17-1.68,.56-2.1Z"/><path class="cls-2" d="M55.11,267.47c-.74,.43-.99,1.37-.56,2.1s1.37,.99,2.1,.56c.74-.43,.99-1.37,.56-2.1-.43-.74-1.37-.99-2.1-.56Z"/></g></g><g><g><path class="cls-2" d="M104.23,268.6c.11,0,.2,.09,.2,.2v27.92c0,.11-.09,.2-.2,.2s-.2-.09-.2-.2v-27.92c0-.11,.09-.2,.2-.2Z"/><path class="cls-2" d="M105.77,296.72c0,.85-.69,1.54-1.54,1.54s-1.54-.69-1.54-1.54,.69-1.54,1.54-1.54,1.54,.69,1.54,1.54Z"/><path class="cls-2" d="M105.77,268.81c0-.85-.69-1.54-1.54-1.54s-1.54,.69-1.54,1.54,.69,1.54,1.54,1.54,1.54-.69,1.54-1.54Z"/></g><g><path class="cls-2" d="M104.23,296.52s.07,0,.1,.03l24.18,13.96c.1,.06,.13,.18,.08,.28-.06,.1-.18,.13-.28,.07l-24.18-13.96c-.1-.06-.13-.18-.07-.28,.04-.07,.11-.1,.18-.1Z"/><path class="cls-2" d="M103.46,298.06c-.74-.43-.99-1.37-.56-2.1,.42-.74,1.37-.99,2.1-.56,.74,.42,.99,1.37,.56,2.1-.43,.74-1.37,.99-2.1,.56Z"/><path class="cls-2" d="M127.64,312.02c.74,.43,1.68,.17,2.1-.56,.42-.74,.17-1.68-.56-2.1-.74-.42-1.68-.17-2.1,.56-.43,.74-.17,1.68,.56,2.1Z"/></g><g><path class="cls-2" d="M152.59,296.52c.07,0,.14,.04,.18,.1,.06,.1,.02,.22-.07,.28l-24.18,13.96c-.1,.06-.22,.02-.28-.07-.06-.1-.02-.22,.07-.28l24.18-13.96s.07-.03,.1-.03Z"/><path class="cls-2" d="M129.18,312.02c-.74,.43-1.68,.17-2.1-.56-.43-.74-.17-1.68,.56-2.1,.74-.42,1.68-.17,2.1,.56,.42,.74,.17,1.68-.56,2.1Z"/><path class="cls-2" d="M153.36,298.06c.74-.43,.99-1.37,.56-2.1-.43-.74-1.37-.99-2.1-.56-.74,.42-.99,1.37-.56,2.1,.42,.74,1.37,.99,2.1,.56Z"/></g><g><path class="cls-2" d="M152.59,268.6c.11,0,.2,.09,.2,.2v27.92c0,.11-.09,.2-.2,.2s-.2-.09-.2-.2v-27.92c0-.11,.09-.2,.2-.2Z"/><path class="cls-2" d="M154.13,296.72c0,.85-.69,1.54-1.54,1.54s-1.54-.69-1.54-1.54,.69-1.54,1.54-1.54,1.54,.69,1.54,1.54Z"/><path class="cls-2" d="M154.13,268.81c0-.85-.69-1.54-1.54-1.54s-1.54,.69-1.54,1.54,.69,1.54,1.54,1.54,1.54-.69,1.54-1.54Z"/></g><g><path class="cls-2" d="M128.41,254.64s.07,0,.1,.03l24.17,13.96c.1,.06,.13,.18,.08,.28-.06,.1-.18,.13-.28,.07l-24.17-13.96c-.1-.06-.13-.18-.07-.28,.04-.07,.11-.1,.18-.1Z"/><path class="cls-2" d="M153.35,267.47c.74,.43,.99,1.37,.56,2.1-.43,.74-1.37,.99-2.1,.56-.74-.42-.99-1.37-.56-2.1,.42-.74,1.37-.99,2.1-.56Z"/><path class="cls-2" d="M129.18,253.51c-.74-.42-1.68-.17-2.1,.56-.43,.74-.17,1.68,.56,2.1,.74,.42,1.68,.17,2.1-.56,.43-.74,.17-1.68-.56-2.1Z"/></g><g><path class="cls-2" d="M128.41,254.64c.07,0,.14,.04,.18,.1,.06,.1,.02,.22-.08,.28l-24.18,13.96c-.1,.06-.22,.02-.28-.07-.06-.1-.02-.22,.07-.28l24.18-13.96s.07-.03,.1-.03Z"/><path class="cls-2" d="M127.64,253.51c.74-.42,1.68-.17,2.1,.56,.42,.74,.17,1.68-.56,2.1-.74,.42-1.68,.17-2.1-.56-.43-.74-.17-1.68,.56-2.1Z"/><path class="cls-2" d="M103.46,267.47c-.74,.43-.99,1.37-.56,2.1,.42,.74,1.37,.99,2.1,.56,.74-.43,.99-1.37,.56-2.1-.43-.74-1.37-.99-2.1-.56Z"/></g></g><g><g><path class="cls-2" d="M152.58,268.6c.11,0,.2,.09,.2,.2v27.92c0,.11-.09,.2-.2,.2s-.2-.09-.2-.2v-27.92c0-.11,.09-.2,.2-.2Z"/><path class="cls-2" d="M154.12,296.72c0,.85-.69,1.54-1.54,1.54s-1.54-.69-1.54-1.54,.69-1.54,1.54-1.54,1.54,.69,1.54,1.54Z"/><path class="cls-2" d="M154.12,268.81c0-.85-.69-1.54-1.54-1.54s-1.54,.69-1.54,1.54,.69,1.54,1.54,1.54,1.54-.69,1.54-1.54Z"/></g><g><path class="cls-2" d="M152.58,296.52s.07,0,.1,.03l24.18,13.96c.1,.06,.13,.18,.07,.28-.06,.1-.18,.13-.28,.07l-24.18-13.96c-.1-.06-.13-.18-.07-.28,.04-.07,.11-.1,.18-.1Z"/><path class="cls-2" d="M151.81,298.06c-.74-.43-.99-1.37-.56-2.1,.43-.74,1.37-.99,2.1-.56,.74,.42,.99,1.37,.56,2.1-.42,.74-1.37,.99-2.1,.56Z"/><path class="cls-2" d="M175.99,312.02c.74,.43,1.68,.17,2.1-.56,.42-.74,.17-1.68-.56-2.1s-1.68-.17-2.1,.56c-.42,.74-.17,1.68,.56,2.1Z"/></g><g><path class="cls-2" d="M200.94,296.52c.07,0,.14,.04,.18,.1,.06,.1,.02,.22-.07,.28l-24.18,13.96c-.1,.06-.22,.02-.28-.07-.06-.1-.02-.22,.08-.28l24.18-13.96s.07-.03,.1-.03Z"/><path class="cls-2" d="M177.53,312.02c-.74,.43-1.68,.17-2.1-.56-.42-.74-.17-1.68,.56-2.1,.74-.42,1.68-.17,2.1,.56s.17,1.68-.56,2.1Z"/><path class="cls-2" d="M201.71,298.06c.74-.43,.99-1.37,.56-2.1-.42-.74-1.37-.99-2.1-.56-.74,.42-.99,1.37-.56,2.1,.43,.74,1.37,.99,2.1,.56Z"/></g><g><path class="cls-2" d="M200.94,268.6c.11,0,.2,.09,.2,.2v27.92c0,.11-.09,.2-.2,.2s-.2-.09-.2-.2v-27.92c0-.11,.09-.2,.2-.2Z"/><path class="cls-2" d="M202.48,296.72c0,.85-.69,1.54-1.54,1.54s-1.54-.69-1.54-1.54,.69-1.54,1.54-1.54,1.54,.69,1.54,1.54Z"/><path class="cls-2" d="M202.48,268.81c0-.85-.69-1.54-1.54-1.54s-1.54,.69-1.54,1.54,.69,1.54,1.54,1.54,1.54-.69,1.54-1.54Z"/></g><g><path class="cls-2" d="M176.76,254.64s.07,0,.1,.03l24.17,13.96c.1,.06,.13,.18,.07,.28-.06,.1-.18,.13-.28,.07l-24.17-13.96c-.1-.06-.13-.18-.08-.28,.04-.07,.11-.1,.18-.1Z"/><path class="cls-2" d="M201.71,267.47c.74,.43,.99,1.37,.56,2.1-.43,.74-1.37,.99-2.1,.56-.74-.42-.99-1.37-.56-2.1,.43-.74,1.37-.99,2.1-.56Z"/><path class="cls-2" d="M177.53,253.51c-.74-.42-1.68-.17-2.1,.56-.43,.74-.17,1.68,.56,2.1,.74,.42,1.68,.17,2.1-.56,.42-.74,.17-1.68-.56-2.1Z"/></g><g><path class="cls-2" d="M176.76,254.64c.07,0,.14,.04,.18,.1,.06,.1,.02,.22-.07,.28l-24.18,13.96c-.1,.06-.22,.02-.28-.07-.06-.1-.02-.22,.07-.28l24.18-13.96s.07-.03,.1-.03Z"/><path class="cls-2" d="M175.99,253.51c.74-.42,1.68-.17,2.1,.56,.42,.74,.17,1.68-.56,2.1s-1.68,.17-2.1-.56c-.42-.74-.17-1.68,.56-2.1Z"/><path class="cls-2" d="M151.81,267.47c-.74,.43-.99,1.37-.56,2.1,.43,.74,1.37,.99,2.1,.56,.74-.43,.99-1.37,.56-2.1-.42-.74-1.37-.99-2.1-.56Z"/></g></g><g><g><path class="cls-2" d="M200.94,268.6c.11,0,.2,.09,.2,.2v27.92c0,.11-.09,.2-.2,.2s-.2-.09-.2-.2v-27.92c0-.11,.09-.2,.2-.2Z"/><path class="cls-2" d="M202.48,296.72c0,.85-.69,1.54-1.54,1.54s-1.54-.69-1.54-1.54,.69-1.54,1.54-1.54,1.54,.69,1.54,1.54Z"/><path class="cls-2" d="M202.48,268.81c0-.85-.69-1.54-1.54-1.54s-1.54,.69-1.54,1.54,.69,1.54,1.54,1.54,1.54-.69,1.54-1.54Z"/></g><g><path class="cls-2" d="M200.94,296.52s.07,0,.1,.03l24.18,13.96c.1,.06,.13,.18,.07,.28-.06,.1-.18,.13-.28,.07l-24.18-13.96c-.1-.06-.13-.18-.08-.28,.04-.07,.11-.1,.18-.1Z"/><path class="cls-2" d="M200.17,298.06c-.74-.43-.99-1.37-.56-2.1,.42-.74,1.37-.99,2.1-.56,.74,.42,.99,1.37,.56,2.1-.43,.74-1.37,.99-2.1,.56Z"/><path class="cls-2" d="M224.35,312.02c.74,.43,1.68,.17,2.1-.56,.42-.74,.17-1.68-.56-2.1-.74-.42-1.68-.17-2.1,.56-.43,.74-.17,1.68,.56,2.1Z"/></g><g><path class="cls-2" d="M249.3,296.52c.07,0,.14,.04,.18,.1,.06,.1,.02,.22-.07,.28l-24.18,13.96c-.1,.06-.22,.02-.28-.07-.06-.1-.02-.22,.07-.28l24.18-13.96s.07-.03,.1-.03Z"/><path class="cls-2" d="M225.89,312.02c-.74,.43-1.68,.17-2.1-.56-.43-.74-.17-1.68,.56-2.1s1.68-.17,2.1,.56c.42,.74,.17,1.68-.56,2.1Z"/><path class="cls-2" d="M250.07,298.06c.74-.43,.99-1.37,.56-2.1-.42-.74-1.37-.99-2.1-.56-.74,.42-.99,1.37-.56,2.1,.43,.74,1.37,.99,2.1,.56Z"/></g></g><g><g><path class="cls-2" d="M128.61,325.7v-15.02c0-.11-.09-.2-.2-.2s-.2,.09-.2,.2v15.02h.41Z"/><path class="cls-2" d="M129.95,310.68c0-.85-.69-1.54-1.54-1.54s-1.54,.69-1.54,1.54,.69,1.54,1.54,1.54,1.54-.69,1.54-1.54Z"/></g><g><path class="cls-2" d="M104.23,296.52s.07,0,.1,.03l24.17,13.96c.1,.06,.13,.18,.07,.28-.06,.1-.18,.13-.28,.07l-24.17-13.96c-.1-.06-.13-.18-.07-.28,.04-.07,.11-.1,.18-.1Z"/><path class="cls-2" d="M129.17,309.35c.74,.42,.99,1.37,.56,2.1-.43,.74-1.37,.99-2.1,.56s-.99-1.37-.56-2.1c.42-.74,1.37-.99,2.1-.56Z"/><path class="cls-2" d="M105,295.39c-.74-.43-1.68-.17-2.1,.56-.43,.74-.17,1.68,.56,2.1,.74,.43,1.68,.17,2.1-.56,.43-.74,.17-1.68-.56-2.1Z"/></g></g><g><g><path class="cls-2" d="M128.61,325.7v-15.02c0-.11-.09-.2-.2-.2s-.2,.09-.2,.2v15.02h.41Z"/><path class="cls-2" d="M129.94,310.68c0-.85-.69-1.54-1.54-1.54s-1.54,.69-1.54,1.54,.69,1.54,1.54,1.54,1.54-.69,1.54-1.54Z"/></g><g><path class="cls-2" d="M176.97,325.7v-15.02c0-.11-.09-.2-.21-.2s-.2,.09-.2,.2v15.02h.41Z"/><path class="cls-2" d="M178.3,310.68c0-.85-.69-1.54-1.54-1.54s-1.54,.69-1.54,1.54,.69,1.54,1.54,1.54,1.54-.69,1.54-1.54Z"/></g><g><path class="cls-2" d="M152.58,296.52s.07,0,.1,.03l24.17,13.96c.1,.06,.13,.18,.07,.28-.06,.1-.18,.13-.28,.07l-24.17-13.96c-.1-.06-.13-.18-.07-.28,.04-.07,.11-.1,.18-.1Z"/><path class="cls-2" d="M177.53,309.35c.74,.42,.99,1.37,.56,2.1-.42,.74-1.37,.99-2.1,.56-.74-.43-.99-1.37-.56-2.1,.43-.74,1.37-.99,2.1-.56Z"/><path class="cls-2" d="M153.35,295.39c-.74-.43-1.68-.17-2.1,.56s-.17,1.68,.56,2.1c.74,.43,1.68,.17,2.1-.56s.17-1.68-.56-2.1Z"/></g><g><path class="cls-2" d="M152.58,296.52c.07,0,.14,.04,.18,.1,.06,.1,.02,.22-.08,.28l-24.18,13.96c-.1,.06-.22,.02-.28-.07-.06-.1-.02-.22,.07-.28l24.18-13.96s.07-.03,.1-.03Z"/><path class="cls-2" d="M151.81,295.39c.74-.43,1.68-.17,2.1,.56,.43,.74,.17,1.68-.56,2.1-.74,.42-1.68,.17-2.1-.56-.42-.74-.17-1.68,.56-2.1Z"/><path class="cls-2" d="M127.64,309.35c-.74,.43-.99,1.37-.56,2.1,.43,.74,1.37,.99,2.1,.56,.74-.42,.99-1.37,.56-2.1-.42-.74-1.37-.99-2.1-.56Z"/></g></g><g><g><path class="cls-2" d="M176.96,325.7v-15.02c0-.11-.09-.2-.2-.2s-.2,.09-.2,.2v15.02h.41Z"/><path class="cls-2" d="M178.3,310.68c0-.85-.69-1.54-1.54-1.54s-1.54,.69-1.54,1.54,.69,1.54,1.54,1.54,1.54-.69,1.54-1.54Z"/></g><g><path class="cls-2" d="M225.32,325.7v-15.02c0-.11-.09-.2-.21-.2s-.2,.09-.2,.2v15.02h.41Z"/><path class="cls-2" d="M226.66,310.68c0-.85-.69-1.54-1.54-1.54s-1.54,.69-1.54,1.54c0,.85,.69,1.54,1.54,1.54s1.54-.69,1.54-1.54Z"/></g><g><path class="cls-2" d="M200.94,296.52s.07,0,.1,.03l24.17,13.96c.1,.06,.13,.18,.07,.28-.06,.1-.18,.13-.28,.07l-24.17-13.96c-.1-.06-.13-.18-.08-.28,.04-.07,.11-.1,.18-.1Z"/><path class="cls-2" d="M225.88,309.35c.74,.42,.99,1.37,.56,2.1-.43,.74-1.37,.99-2.1,.56s-.99-1.37-.56-2.1c.42-.74,1.37-.99,2.1-.56Z"/><path class="cls-2" d="M201.71,295.39c-.74-.43-1.68-.17-2.1,.56s-.17,1.68,.56,2.1c.74,.43,1.68,.17,2.1-.56,.43-.74,.17-1.68-.56-2.1Z"/></g><g><path class="cls-2" d="M200.94,296.52c.07,0,.14,.04,.18,.1,.06,.1,.02,.22-.07,.28l-24.18,13.96c-.1,.06-.22,.02-.28-.07-.06-.1-.02-.22,.07-.28l24.18-13.96s.07-.03,.1-.03Z"/><path class="cls-2" d="M200.17,295.39c.74-.43,1.68-.17,2.1,.56,.42,.74,.17,1.68-.56,2.1-.74,.42-1.68,.17-2.1-.56-.43-.74-.17-1.68,.56-2.1Z"/><path class="cls-2" d="M175.99,309.35c-.74,.43-.99,1.37-.56,2.1,.42,.74,1.37,.99,2.1,.56,.74-.42,.99-1.37,.56-2.1-.43-.74-1.37-.99-2.1-.56Z"/></g></g><g><g><path class="cls-2" d="M225.32,325.7v-15.02c0-.11-.09-.2-.2-.2s-.2,.09-.2,.2v15.02h.41Z"/><path class="cls-2" d="M226.65,310.68c0-.85-.69-1.54-1.54-1.54s-1.54,.69-1.54,1.54,.69,1.54,1.54,1.54,1.54-.69,1.54-1.54Z"/></g><g><path class="cls-2" d="M249.29,296.52c.07,0,.14,.04,.18,.1,.06,.1,.02,.22-.07,.28l-24.18,13.96c-.1,.06-.22,.02-.28-.07-.06-.1-.02-.22,.08-.28l24.18-13.96s.07-.03,.1-.03Z"/><path class="cls-2" d="M248.52,295.39c.74-.43,1.68-.17,2.1,.56,.43,.74,.17,1.68-.56,2.1s-1.68,.17-2.1-.56c-.43-.74-.17-1.68,.56-2.1Z"/><path class="cls-2" d="M224.34,309.35c-.74,.43-.99,1.37-.56,2.1,.43,.74,1.37,.99,2.1,.56,.74-.42,.99-1.37,.56-2.1-.42-.74-1.37-.99-2.1-.56Z"/></g></g></g></g></g></g></g></svg>