<?xml version="1.0" encoding="UTF-8"?><svg id="Layer_1" xmlns="http://www.w3.org/2000/svg" viewBox="0 0 512 512"><defs><style>.cls-1{fill:#fff;fill-rule:evenodd;}</style></defs><path class="cls-1" d="M256,58.76c-108.93,0-197.25,90.52-197.25,202.27,0,89.38,56.53,165.11,134.9,191.88,9.86,1.85,13.47-4.4,13.47-9.77,0-4.84-.18-17.52-.26-34.43-54.86,12.24-66.48-27.12-66.48-27.12-8.98-23.34-21.93-29.59-21.93-29.59-17.88-12.59,1.32-12.33,1.32-12.33,19.81,1.41,30.2,20.87,30.2,20.87,17.61,30.91,46.14,22.01,57.41,16.82,1.76-13.03,6.87-22.01,12.5-27.03-43.76-5.11-89.82-22.45-89.82-99.95,0-22.1,7.66-40.15,20.25-54.24-2.03-5.11-8.81-25.71,1.94-53.54,0,0,16.55-5.46,54.24,20.69,15.76-4.49,32.58-6.69,49.4-6.78,16.73,.09,33.64,2.29,49.4,6.78,37.69-26.15,54.16-20.69,54.16-20.69,10.74,27.83,3.96,48.43,1.94,53.54,12.59,14.18,20.25,32.23,20.25,54.24,0,77.67-46.14,94.75-90.08,99.77,7.04,6.25,13.38,18.58,13.38,37.42,0,27.03-.26,48.87-.26,55.48,0,5.37,3.52,11.71,13.56,9.69,78.55-26.68,134.99-102.41,134.99-191.7,0-111.75-88.32-202.27-197.25-202.27Z"/></svg>