<?xml version="1.0" encoding="UTF-8"?><svg id="Layer_1" xmlns="http://www.w3.org/2000/svg" viewBox="0 0 512 512"><defs><style>.cls-1{fill:#fff;}</style></defs><path class="cls-1" d="M44.34,44.34V467.66H467.66V44.34H44.34Zm226.78,328.83c0,41.21-24.34,61.3-59.58,61.3-31.82,0-50.3-16.48-59.67-36.37l32.39-19.61c6.25,11.08,10.99,20.46,24.62,20.46,11.34,0,20.66-5.11,20.66-25V240.88h41.58v132.29Zm93.88,60.35c-36.94,0-60.81-16.67-72.46-39.69l32.44-18.78c8.5,13.93,19.61,23.21,39.21,23.21,16.48,0,26.05-7.29,26.05-18.66,0-13.64-9.86-18.46-28.05-26.46l-9.94-4.27c-28.71-12.21-47.74-27.55-47.74-59.95,0-29.83,22.73-51.62,58.24-51.62,25.3,0,43.47,7.86,56.55,30.88l-31.03,19.95c-6.82-12.22-14.17-17.01-25.57-17.01s-19.04,7.39-19.04,17.01c0,11.93,7.39,16.76,24.44,24.15l9.94,4.26c33.82,14.5,52.86,29.29,52.86,62.52,0,35.81-28.12,54.46-65.92,54.46Z"/></svg>