<?xml version="1.0" encoding="UTF-8"?><svg id="Layer_1" xmlns="http://www.w3.org/2000/svg" viewBox="0 0 512 512"><defs><style>.cls-1{fill:#fff;}</style></defs><path class="cls-1" d="M169.41,228.24h-16.65l-9.08,46.71h14.78c9.81,0,17.11-1.85,21.91-5.54,4.8-3.7,8.03-9.86,9.7-18.5,1.62-8.29,.88-14.15-2.19-17.55-3.09-3.4-9.22-5.12-18.47-5.12Zm88.02-79.71c-116.89,0-211.66,49.85-211.66,111.33s94.77,111.35,211.66,111.35,211.66-49.86,211.66-111.35-94.77-111.33-211.66-111.33Zm-57.5,131.42c-4.6,4.41-10.14,7.73-16.17,9.72-5.93,1.9-13.49,2.89-22.67,2.89h-20.83l-5.77,29.65h-24.31l21.7-111.58h46.74c14.06,0,24.31,3.69,30.76,11.08,6.46,7.37,8.4,17.67,5.82,30.9-.99,5.23-2.8,10.28-5.38,14.94-2.52,4.5-5.82,8.64-9.9,12.4Zm70.98,12.61l9.58-49.37c1.11-5.61,.69-9.45-1.2-11.48-1.89-2.05-5.93-3.07-12.12-3.07h-19.26l-12.42,63.94h-24.13l21.7-111.6h24.11l-5.77,29.67h21.48c13.53,0,22.84,2.36,27.97,7.07s6.67,12.35,4.64,22.91l-10.09,51.93h-24.5Zm134-39.95c-.97,5.24-2.79,10.28-5.38,14.94-2.52,4.5-5.82,8.64-9.9,12.4-4.61,4.4-10.13,7.72-16.17,9.72-5.93,1.9-13.49,2.89-22.68,2.89h-20.81l-5.77,29.67h-24.31l21.7-111.58h46.72c14.06,0,24.31,3.69,30.76,11.08,6.46,7.36,8.41,17.66,5.84,30.88Zm-45.77-24.38h-16.63l-9.1,46.71h14.78c9.82,0,17.13-1.85,21.91-5.54,4.8-3.7,8.03-9.86,9.72-18.5,1.62-8.29,.86-14.15-2.2-17.55s-9.24-5.12-18.47-5.12Z"/></svg>