<?xml version="1.0" encoding="UTF-8"?><svg id="Layer_1" xmlns="http://www.w3.org/2000/svg" viewBox="0 0 512 512"><defs><style>.cls-1{fill:#fff;}</style></defs><path class="cls-1" d="M256,214.77c-22.77,0-41.22,18.45-41.22,41.22s18.45,41.22,41.22,41.22,41.22-18.45,41.22-41.22-18.45-41.22-41.22-41.22Zm-115.47,123.22l-9.1-2.31c-67.79-17.13-106.68-46.21-106.68-79.76s38.89-62.63,106.68-79.76l9.1-2.29,2.56,9.02c6.87,23.66,15.65,46.72,26.27,68.95l1.95,4.1-1.95,4.1c-10.63,22.22-19.42,45.29-26.27,68.95l-2.56,9Zm-13.32-140.77c-51.53,14.47-83.15,36.61-83.15,58.7s31.62,44.21,83.15,58.7c6.3-20.04,13.91-39.65,22.78-58.7-8.88-19.04-16.49-38.65-22.78-58.7Zm244.26,140.77l-2.56-9.04c-6.86-23.66-15.65-46.71-26.29-68.93l-1.95-4.1,1.95-4.1c10.63-22.23,19.42-45.29,26.29-68.95l2.56-9.02,9.12,2.29c67.78,17.13,106.66,46.21,106.66,79.78s-38.89,62.63-106.66,79.76l-9.12,2.31Zm-9.46-82.07c9.25,20.02,16.9,39.7,22.78,58.7,51.55-14.49,83.15-36.63,83.15-58.7s-31.62-44.21-83.15-58.7c-6.29,20.05-13.9,39.65-22.78,58.7Zm-234.93-58.8l-2.56-9c-19.06-67.18-13.28-115.32,15.86-132.12,28.58-16.5,74.46,2.99,122.54,52.34l6.55,6.73-6.55,6.73c-17.08,17.76-32.69,36.88-46.67,57.18l-2.6,3.72-4.53,.39c-24.59,1.94-48.98,5.87-72.94,11.76,0,0-9.1,2.29-9.1,2.29Zm36.54-127.77c-5.16,0-9.73,1.12-13.59,3.33-19.16,11.04-22.55,49.43-9.35,101.23,20.54-4.57,41.35-7.79,62.3-9.65,12.09-17.19,25.3-33.57,39.54-49.03-30.06-29.27-58.53-45.88-78.91-45.88Zm184.79,392.39s-.02,0,0,0c-27.46,0-62.73-20.68-99.32-58.26l-6.55-6.73,6.55-6.73c17.08-17.77,32.68-36.89,46.65-57.2l2.6-3.72,4.51-.39c24.6-1.93,49.01-5.85,72.98-11.74l9.1-2.29,2.58,9.02c19.02,67.14,13.26,115.3-15.88,132.08-7.08,4-15.09,6.05-23.22,5.94Zm-78.93-65.15c30.06,29.27,58.53,45.88,78.91,45.88h.02c5.15,0,9.73-1.12,13.57-3.33,19.16-11.04,22.57-49.45,9.35-101.25-20.54,4.57-41.36,7.8-62.32,9.65-12.08,17.2-25.28,33.59-39.52,49.04Zm115.45-199.47l-9.1-2.29c-23.96-5.9-48.37-9.83-72.98-11.76l-4.51-.39-2.6-3.72c-13.96-20.3-29.57-39.42-46.65-57.18l-6.55-6.73,6.55-6.73c48.06-49.33,93.93-68.82,122.54-52.34,29.14,16.8,34.92,64.94,15.88,132.1,0,0-2.58,9.02-2.58,9.02Zm-75.93-32.86c22.01,2,42.92,5.26,62.32,9.65,13.22-51.8,9.81-90.19-9.35-101.23-19.04-11-54.83,5.86-92.5,42.55,14.24,15.46,27.44,31.83,39.52,49.02ZM163.62,461.75c-8.14,.12-16.16-1.93-23.24-5.94-29.14-16.78-34.92-64.92-15.86-132.08l2.54-9.02,9.1,2.29c22.26,5.61,46.81,9.56,72.94,11.74l4.53,.39,2.58,3.72c13.98,20.3,29.59,39.43,46.67,57.2l6.55,6.73-6.55,6.73c-36.58,37.58-71.84,58.26-99.26,58.26Zm-22.93-123.85c-13.22,51.8-9.81,90.21,9.35,101.25,19.02,10.85,54.79-5.88,92.5-42.55-14.24-15.47-27.45-31.85-39.54-49.04-20.96-1.85-41.77-5.08-62.3-9.65Zm115.32,12.1c-15.86,0-32.16-.69-48.49-2.04l-4.53-.39-2.6-3.72c-9.23-13.27-17.91-26.91-26.02-40.89-8.08-14-15.58-28.32-22.47-42.94l-1.93-4.1,1.93-4.1c6.89-14.62,14.39-28.94,22.47-42.94,7.98-13.8,16.75-27.56,26.02-40.89l2.6-3.72,4.53-.39c32.27-2.74,64.72-2.74,96.99,0l4.51,.39,2.58,3.72c18.48,26.54,34.71,54.58,48.5,83.83l1.95,4.1-1.95,4.1c-13.76,29.27-29.99,57.31-48.5,83.83l-2.58,3.72-4.51,.39c-16.32,1.35-32.64,2.04-48.5,2.04Zm-42.34-20.89c28.52,2.14,56.16,2.14,84.7,0,15.93-23.29,30.08-47.76,42.32-73.19-12.22-25.45-26.37-49.91-42.34-73.19-28.18-2.14-56.49-2.14-84.68,0-15.97,23.27-30.13,47.74-42.34,73.19,12.25,25.43,26.4,49.89,42.34,73.19Z"/></svg>